<?xml version="1.0" encoding="UTF-8" standalone="no"?>
<!-- Created with Inkscape (http://www.inkscape.org/) -->

<svg
   xmlns:dc="http://purl.org/dc/elements/1.1/"
   xmlns:cc="http://creativecommons.org/ns#"
   xmlns:rdf="http://www.w3.org/1999/02/22-rdf-syntax-ns#"
   xmlns:svg="http://www.w3.org/2000/svg"
   xmlns="http://www.w3.org/2000/svg"
   xmlns:xlink="http://www.w3.org/1999/xlink"
   xmlns:sodipodi="http://sodipodi.sourceforge.net/DTD/sodipodi-0.dtd"
   xmlns:inkscape="http://www.inkscape.org/namespaces/inkscape"
   width="1920"
   height="1200"
   viewBox="0 0 508.00001 317.49999"
   version="1.1"
   id="svg8"
   inkscape:version="0.92.3 (2405546, 2018-03-11)"
   sodipodi:docname="background.svg">
  <defs
     id="defs2">
    <linearGradient
       inkscape:collect="always"
       id="linearGradient7079">
      <stop
         style="stop-color:#cf9b13;stop-opacity:1;"
         offset="0"
         id="stop7075" />
      <stop
         style="stop-color:#dfb523;stop-opacity:1"
         offset="1"
         id="stop7077" />
    </linearGradient>
    <linearGradient
       inkscape:collect="always"
       id="linearGradient7071">
      <stop
         style="stop-color:#dcb755;stop-opacity:1;"
         offset="0"
         id="stop7067" />
      <stop
         style="stop-color:#e5c976;stop-opacity:1"
         offset="1"
         id="stop7069" />
    </linearGradient>
    <linearGradient
       inkscape:collect="always"
       id="linearGradient7063">
      <stop
         style="stop-color:#ded8ca;stop-opacity:1;"
         offset="0"
         id="stop7059" />
      <stop
         style="stop-color:#c5d8ca;stop-opacity:1"
         offset="1"
         id="stop7061" />
    </linearGradient>
    <linearGradient
       inkscape:collect="always"
       id="linearGradient7055">
      <stop
         style="stop-color:#c1ad7a;stop-opacity:1;"
         offset="0"
         id="stop7051" />
      <stop
         style="stop-color:#c1ad56;stop-opacity:1"
         offset="1"
         id="stop7053" />
    </linearGradient>
    <linearGradient
       inkscape:collect="always"
       id="linearGradient7047">
      <stop
         style="stop-color:#dac9b9;stop-opacity:1;"
         offset="0"
         id="stop7043" />
      <stop
         style="stop-color:#dac99a;stop-opacity:1"
         offset="1"
         id="stop7045" />
    </linearGradient>
    <linearGradient
       inkscape:collect="always"
       id="linearGradient7039">
      <stop
         style="stop-color:#e9e5e4;stop-opacity:1;"
         offset="0"
         id="stop7035" />
      <stop
         style="stop-color:#e9e5b0;stop-opacity:1"
         offset="1"
         id="stop7037" />
    </linearGradient>
    <linearGradient
       inkscape:collect="always"
       id="linearGradient7031">
      <stop
         style="stop-color:#d3ceca;stop-opacity:1;"
         offset="0"
         id="stop7027" />
      <stop
         style="stop-color:#d3cea8;stop-opacity:1"
         offset="1"
         id="stop7029" />
    </linearGradient>
    <linearGradient
       inkscape:collect="always"
       id="linearGradient7023">
      <stop
         style="stop-color:#fffaff;stop-opacity:1"
         offset="0"
         id="stop7019" />
      <stop
         style="stop-color:#ebdcc7;stop-opacity:1"
         offset="1"
         id="stop7021" />
    </linearGradient>
    <linearGradient
       inkscape:collect="always"
       id="linearGradient5098">
      <stop
         style="stop-color:#e3dcd4;stop-opacity:1;"
         offset="0"
         id="stop5094" />
      <stop
         style="stop-color:#e3dcd4;stop-opacity:0;"
         offset="1"
         id="stop5096" />
    </linearGradient>
    <linearGradient
       inkscape:collect="always"
       id="linearGradient5090">
      <stop
         style="stop-color:#c7bcb8;stop-opacity:1;"
         offset="0"
         id="stop5086" />
      <stop
         style="stop-color:#c7bcb8;stop-opacity:0;"
         offset="1"
         id="stop5088" />
    </linearGradient>
    <linearGradient
       inkscape:collect="always"
       id="linearGradient5082">
      <stop
         style="stop-color:#c9a88f;stop-opacity:1;"
         offset="0"
         id="stop5078" />
      <stop
         style="stop-color:#c9a88f;stop-opacity:0;"
         offset="1"
         id="stop5080" />
    </linearGradient>
    <linearGradient
       inkscape:collect="always"
       id="linearGradient5074">
      <stop
         style="stop-color:#e9e5e4;stop-opacity:1;"
         offset="0"
         id="stop5070" />
      <stop
         style="stop-color:#e9e5e4;stop-opacity:0;"
         offset="1"
         id="stop5072" />
    </linearGradient>
    <linearGradient
       inkscape:collect="always"
       id="linearGradient5066">
      <stop
         style="stop-color:#d3ceca;stop-opacity:1;"
         offset="0"
         id="stop5062" />
      <stop
         style="stop-color:#d3ceb2;stop-opacity:1"
         offset="1"
         id="stop5064" />
    </linearGradient>
    <linearGradient
       inkscape:collect="always"
       id="linearGradient5058">
      <stop
         style="stop-color:#e1d1ae;stop-opacity:1;"
         offset="0"
         id="stop5054" />
      <stop
         style="stop-color:#e1d16e;stop-opacity:1"
         offset="1"
         id="stop5056" />
    </linearGradient>
    <linearGradient
       inkscape:collect="always"
       id="linearGradient5050">
      <stop
         style="stop-color:#c1ad7a;stop-opacity:1;"
         offset="0"
         id="stop5046" />
      <stop
         style="stop-color:#c1ad56;stop-opacity:1"
         offset="1"
         id="stop5048" />
    </linearGradient>
    <linearGradient
       inkscape:collect="always"
       id="linearGradient5026">
      <stop
         style="stop-color:#e0dcd3;stop-opacity:1;"
         offset="0"
         id="stop5022" />
      <stop
         style="stop-color:#e0dc9c;stop-opacity:1"
         offset="1"
         id="stop5024" />
    </linearGradient>
    <linearGradient
       inkscape:collect="always"
       id="linearGradient5018">
      <stop
         style="stop-color:#d7ceaf;stop-opacity:1;"
         offset="0"
         id="stop5014" />
      <stop
         style="stop-color:#d7ce5a;stop-opacity:1"
         offset="1"
         id="stop5016" />
    </linearGradient>
    <linearGradient
       inkscape:collect="always"
       id="linearGradient5010">
      <stop
         style="stop-color:#ffffff;stop-opacity:1"
         offset="0"
         id="stop5006" />
      <stop
         style="stop-color:#dbd3c8;stop-opacity:1"
         offset="1"
         id="stop5008" />
    </linearGradient>
    <linearGradient
       inkscape:collect="always"
       id="linearGradient5002">
      <stop
         style="stop-color:#fffcff;stop-opacity:1"
         offset="0"
         id="stop4998" />
      <stop
         style="stop-color:#dbd3c8;stop-opacity:0.97989953"
         offset="1"
         id="stop5000" />
    </linearGradient>
    <linearGradient
       inkscape:collect="always"
       id="linearGradient4994">
      <stop
         style="stop-color:#ffffff;stop-opacity:1"
         offset="0"
         id="stop4990" />
      <stop
         style="stop-color:#dbd3c8;stop-opacity:0.99497485"
         offset="1"
         id="stop4992" />
    </linearGradient>
    <linearGradient
       inkscape:collect="always"
       xlink:href="#linearGradient5018"
       id="linearGradient5020"
       x1="842.49269"
       y1="528.32221"
       x2="1055.7914"
       y2="528.32221"
       gradientUnits="userSpaceOnUse" />
    <linearGradient
       inkscape:collect="always"
       xlink:href="#linearGradient5026"
       id="linearGradient5028"
       x1="1038.9252"
       y1="468.36695"
       x2="1315.5617"
       y2="468.36695"
       gradientUnits="userSpaceOnUse" />
    <linearGradient
       inkscape:collect="always"
       xlink:href="#linearGradient5050"
       id="linearGradient5052"
       x1="840.07151"
       y1="780.62415"
       x2="1197.59"
       y2="780.62415"
       gradientUnits="userSpaceOnUse" />
    <linearGradient
       inkscape:collect="always"
       xlink:href="#linearGradient5058"
       id="linearGradient5060"
       x1="1181.2648"
       y1="791.83039"
       x2="1434.1059"
       y2="791.83039"
       gradientUnits="userSpaceOnUse" />
    <linearGradient
       inkscape:collect="always"
       xlink:href="#linearGradient5066"
       id="linearGradient5068"
       x1="1556.5402"
       y1="758.97346"
       x2="1712.3123"
       y2="758.97346"
       gradientUnits="userSpaceOnUse" />
    <linearGradient
       inkscape:collect="always"
       xlink:href="#linearGradient5074"
       id="linearGradient5076"
       x1="1557.1869"
       y1="662.56055"
       x2="1713.9238"
       y2="662.56055"
       gradientUnits="userSpaceOnUse" />
    <linearGradient
       inkscape:collect="always"
       xlink:href="#linearGradient5082"
       id="linearGradient5084"
       x1="1455.5561"
       y1="615.42844"
       x2="1579.477"
       y2="615.42844"
       gradientUnits="userSpaceOnUse" />
    <linearGradient
       inkscape:collect="always"
       xlink:href="#linearGradient5090"
       id="linearGradient5092"
       x1="1585.7749"
       y1="581.96877"
       x2="1684.6617"
       y2="581.96877"
       gradientUnits="userSpaceOnUse" />
    <linearGradient
       inkscape:collect="always"
       xlink:href="#linearGradient5098"
       id="linearGradient5100"
       x1="1473.2913"
       y1="531.80607"
       x2="1622.0912"
       y2="531.80607"
       gradientUnits="userSpaceOnUse" />
    <filter
       inkscape:collect="always"
       style="color-interpolation-filters:sRGB"
       id="filter5346"
       x="-0.095179661"
       width="1.1903593"
       y="-0.543705"
       height="2.08741">
      <feGaussianBlur
         inkscape:collect="always"
         stdDeviation="59.840165"
         id="feGaussianBlur5348" />
    </filter>
    <radialGradient
       inkscape:collect="always"
       xlink:href="#linearGradient4994"
       id="radialGradient7013"
       cx="1517.6553"
       cy="930.43372"
       fx="1517.6553"
       fy="930.43372"
       r="101.3281"
       gradientTransform="matrix(1,0,0,0.72836101,0,256.47152)"
       gradientUnits="userSpaceOnUse" />
    <radialGradient
       inkscape:collect="always"
       xlink:href="#linearGradient5010"
       id="radialGradient7015"
       cx="1426.0402"
       cy="860.69055"
       fx="1426.0402"
       fy="860.69055"
       r="93.233246"
       gradientTransform="matrix(1,0,0,0.74186162,0,228.1423)"
       gradientUnits="userSpaceOnUse" />
    <radialGradient
       inkscape:collect="always"
       xlink:href="#linearGradient5002"
       id="radialGradient7017"
       cx="1617.2024"
       cy="864.18042"
       fx="1617.2024"
       fy="864.18042"
       r="73.892006"
       gradientTransform="matrix(1,0,0,1.0524235,0,-45.943822)"
       gradientUnits="userSpaceOnUse" />
    <radialGradient
       inkscape:collect="always"
       xlink:href="#linearGradient7023"
       id="radialGradient7025"
       cx="1515.0193"
       cy="793.62994"
       fx="1515.0193"
       fy="793.62994"
       r="83.284856"
       gradientTransform="matrix(1.0000006,0,0,0.74600096,-9.7149422e-4,204.49964)"
       gradientUnits="userSpaceOnUse" />
    <linearGradient
       inkscape:collect="always"
       xlink:href="#linearGradient7031"
       id="linearGradient7033"
       x1="1555.9616"
       y1="662.34649"
       x2="1714.8817"
       y2="662.34649"
       gradientUnits="userSpaceOnUse" />
    <linearGradient
       inkscape:collect="always"
       xlink:href="#linearGradient7039"
       id="linearGradient7041"
       x1="1572.6596"
       y1="593.85016"
       x2="1695.4122"
       y2="593.85016"
       gradientUnits="userSpaceOnUse" />
    <linearGradient
       inkscape:collect="always"
       xlink:href="#linearGradient7047"
       id="linearGradient7049"
       x1="1455.2019"
       y1="549.72393"
       x2="1640.8261"
       y2="549.72393"
       gradientUnits="userSpaceOnUse" />
    <linearGradient
       inkscape:collect="always"
       xlink:href="#linearGradient7055"
       id="linearGradient7057"
       x1="861.98784"
       y1="886.09857"
       x2="1172.7546"
       y2="886.09857"
       gradientUnits="userSpaceOnUse" />
    <linearGradient
       inkscape:collect="always"
       xlink:href="#linearGradient7063"
       id="linearGradient7065"
       x1="695.91759"
       y1="1014.6676"
       x2="993.15957"
       y2="1014.6676"
       gradientUnits="userSpaceOnUse" />
    <radialGradient
       inkscape:collect="always"
       xlink:href="#linearGradient7071"
       id="radialGradient7073"
       cx="637.23682"
       cy="822.44367"
       fx="637.23682"
       fy="822.44367"
       r="34.994409"
       gradientTransform="matrix(1,0,0,0.52923206,0,387.18011)"
       gradientUnits="userSpaceOnUse" />
    <radialGradient
       inkscape:collect="always"
       xlink:href="#linearGradient7079"
       id="radialGradient7081"
       cx="756.66801"
       cy="745.98828"
       fx="756.66801"
       fy="745.98828"
       r="22.347084"
       gradientTransform="matrix(1,0,0,0.5624336,0,326.4194)"
       gradientUnits="userSpaceOnUse" />
  </defs>
  <sodipodi:namedview
     id="base"
     pagecolor="#ffffff"
     bordercolor="#666666"
     borderopacity="1.0"
     inkscape:pageopacity="0.0"
     inkscape:pageshadow="2"
     inkscape:zoom="0.35"
     inkscape:cx="489.25506"
     inkscape:cy="694.68676"
     inkscape:document-units="mm"
     inkscape:current-layer="layer3"
     showgrid="false"
     units="px"
     inkscape:window-width="1920"
     inkscape:window-height="1018"
     inkscape:window-x="-8"
     inkscape:window-y="-8"
     inkscape:window-maximized="1" />
  <metadata
     id="metadata5">
    <rdf:RDF>
      <cc:Work
         rdf:about="">
        <dc:format>image/svg+xml</dc:format>
        <dc:type
           rdf:resource="http://purl.org/dc/dcmitype/StillImage" />
        <dc:title />
      </cc:Work>
    </rdf:RDF>
  </metadata>
  <g
     inkscape:groupmode="layer"
     id="layer3"
     inkscape:label="Layer 3"
     style="display:inline">
    <path
       style="display:inline;opacity:0.88899997;fill:#646464;fill-opacity:1;stroke:none;stroke-width:1.01174331;stroke-linejoin:round;stroke-miterlimit:4;stroke-dasharray:none;stroke-opacity:1;filter:url(#filter5346)"
       d="m 977.83403,1463.9804 c -4.44467,-0.1344 -52.62894,-0.7221 -107.07617,-1.3059 -54.44722,-0.5838 -111.08986,-1.3464 -125.87253,-1.6946 l -26.87759,-0.6332 -16.05389,-13.6787 c -8.82965,-7.5233 -19.3793,-16.3315 -23.44368,-19.5737 l -7.38978,-5.8949 -9.27774,0.072 c -5.10276,0.039 -13.30811,0.4244 -18.23413,0.8554 l -8.95641,0.7835 -104.96412,-38.2058 -104.96411,-38.2058 -32.04653,-5.181 -32.04652,-5.1809 -76.7716,-42.4692 c -42.22437,-23.3581 -77.35049,-42.9979 -78.05804,-43.644 -0.84896,-0.7752 -1.50597,-5.7643 -1.93199,-14.6705 -0.62222,-13.0083 -0.57575,-13.4691 1.28645,-12.7559 1.0626,0.4069 37.94948,19.8031 81.97086,43.1025 l 80.03887,42.3627 h 22.27152 c 17.51172,0 23.04655,-0.3238 25.89797,-1.5152 5.18232,-2.1653 5.39836,-2.0343 5.4155,3.283 0.008,2.639 0.36525,5.3486 0.79275,6.0213 0.4275,0.6727 8.48914,4.156 17.91474,7.7408 147.10713,55.9472 190.73503,72.2589 191.7229,71.6818 0.64961,-0.3795 14.72664,-10.4378 31.28232,-22.3517 16.55566,-11.914 30.23408,-21.4945 30.39651,-21.29 0.16242,0.2044 1.77526,9.3944 3.58408,20.4221 l 3.28877,20.0505 9.62618,15.3049 c 5.29439,8.4177 10.21779,15.9376 10.94089,16.7109 0.78005,0.8343 4.6663,1.7008 9.55621,2.1307 l 8.24149,0.7247 7.86952,7.8233 7.86952,7.8234 14.0141,1.8558 c 43.10423,5.7083 93.90449,7.6048 122.4792,4.5727 42.50955,-4.5107 69.64345,-15.0132 87.12005,-33.7208 7.60024,-8.1356 12.21995,-15.577 15.57799,-25.0931 2.39736,-6.7936 2.44189,-7.5427 2.46281,-41.436 l 0.0213,-34.5173 6.3135,-0.5989 c 3.4724,-0.3293 12.6774,-1.0435 20.4556,-1.5871 7.8444,-0.5482 23.5887,-2.7457 35.3553,-4.9347 11.6673,-2.1705 21.3881,-3.7799 21.6018,-3.5763 0.2137,0.2035 -3.2995,10.9533 -7.8071,23.8884 l -8.1956,23.5183 6.0503,20.7032 c 3.889,13.3077 6.6653,25.1664 7.7718,33.1976 0.9468,6.8719 2.2029,12.6791 2.7912,12.9049 0.5883,0.2257 56.8858,-2.7673 125.1055,-6.6512 l 124.0358,-7.0616 12.5631,-9.198 c 9.4526,-6.9208 12.563,-9.7458 12.563,-11.4102 0,-1.2167 0.9174,-12.6344 2.0386,-25.3726 l 2.0387,-23.1604 -3.6586,-10.9799 c -2.0123,-6.0389 -3.4373,-11.2011 -3.1668,-11.4717 0.2706,-0.2705 3.3861,0.4834 6.9233,1.6753 7.6696,2.5844 17.7803,4.5484 28.152,5.4683 l 7.5783,0.6721 -0.3357,4.2305 c -1.075,13.5391 14.9565,32.2834 37.957,44.3803 19.7719,10.3988 36.3749,14.7979 58.9443,15.6179 23.1696,0.8418 37.6914,-1.8418 56.3503,-10.4134 18.2008,-8.3611 37.6799,-25.1378 50.6046,-43.5844 5.7142,-8.1555 6.9969,-9.4173 10.1015,-9.9379 25.992,-4.3582 42.656,-15.4751 53.2947,-35.5539 7.4223,-14.0084 10.9753,-28.1283 12.3774,-49.1879 0.4799,-7.2092 1.2464,-13.2497 1.7033,-13.4233 0.4568,-0.1736 9.0129,-5.26 19.0134,-11.3031 10.0005,-6.0432 18.2574,-10.9124 18.3485,-10.8204 0.2875,0.2898 -1.73,25.3661 -2.1357,26.5466 -0.2128,0.6191 -4.0268,3.2252 -8.4758,5.7913 -9.4534,5.4527 -7.1286,-0.1702 -19.0222,46.01 l -7.9077,30.7037 -21.9113,21.2054 -21.9114,21.2055 -12.4338,21.4479 -12.4339,21.4479 -11.1117,0.6204 c -6.1114,0.3412 -48.8408,1.8361 -94.9543,3.322 l -83.8427,2.7016 -22.5088,12.9511 -22.5088,12.951 -141.5156,10.1298 -141.5157,10.1297 -21.7577,-4.0406 -21.7576,-4.0406 -23.9243,12.6197 c -22.77145,12.0115 -24.18714,12.6097 -29.38034,12.414 -3.00087,-0.1131 -9.09267,-0.3156 -13.53734,-0.45 z"
       id="path5284"
       inkscape:connector-curvature="0"
       transform="matrix(0.26458333,0,0,0.19723795,0.77305188,-10.071648)" />
    <path
       style="display:inline;fill:#f4f5e5;fill-opacity:1;stroke:none;stroke-width:1.43082106;stroke-linejoin:round;stroke-miterlimit:4;stroke-dasharray:none;stroke-opacity:1"
       d="m 361.87568,825.69358 c -7.74027,-1.16045 -22.95699,-7.96008 -91.42857,-40.8551 -45.17857,-21.70463 -82.29398,-39.56724 -82.47868,-39.69469 -0.18469,-0.12746 1.10102,-3.08062 2.85715,-6.56259 5.20311,-10.31649 20.55782,-16.98017 77.39599,-33.58854 25.88309,-7.56316 50.95452,-14.31484 55.71428,-15.00374 4.75976,-0.68891 17.27943,-1.26548 27.8215,-1.28128 16.93656,-0.0254 21.0932,0.48391 35.71429,4.37587 10.85908,2.89057 20.9664,6.77 29.40404,11.28599 7.07143,3.78477 21.53571,10.19534 32.14286,14.24571 11.38934,4.34906 26.01225,11.37197 35.71428,17.15241 9.03572,5.38346 21.39817,12.61328 27.47213,16.06627 9.28971,5.28112 12.39523,8.08147 19.55464,17.63303 l 8.51107,11.35486 -6.6975,2.33038 c -3.68361,1.28172 -33.05462,11.47268 -65.26891,22.64659 l -58.57143,20.31621 -19.28571,0.48538 c -10.60715,0.26696 -23.46429,-0.14108 -28.57143,-0.90676 z"
       id="path1163"
       inkscape:connector-curvature="0"
       transform="scale(0.26458333)" />
    <path
       style="display:inline;fill:#f2f3e5;fill-opacity:1;stroke:none;stroke-width:1.43082106;stroke-linejoin:round;stroke-miterlimit:4;stroke-dasharray:none;stroke-opacity:1"
       d="m 832.58996,1000.5604 c -24.06104,-1.55159 -53.65046,-6.96967 -77.6139,-14.21172 -29.25615,-8.84158 -44.43115,-18.76372 -52.84734,-34.55411 -5.44677,-10.2192 -5.56874,-12.98619 -1.00454,-22.78992 5.14759,-11.05683 16.81871,-22.77078 27.48014,-27.58097 25.6917,-11.59151 70.56647,-21.37676 120.41422,-26.25714 31.11904,-3.04673 92.1827,11.04172 113.86931,26.27164 15.62281,10.97147 25.86907,24.63569 28.3367,37.78926 0.92479,4.92954 0.53759,5.8857 -4.52593,11.17632 -3.04547,3.18208 -10.38211,9.41699 -16.30364,13.85536 -27.0433,20.26979 -61.96943,32.48659 -102.46882,35.84248 -16.34447,1.3544 -20.59327,1.4096 -35.3362,0.4588 z"
       id="path1177"
       inkscape:connector-curvature="0"
       transform="scale(0.26458333)" />
    <path
       style="display:inline;fill:#efdea6;fill-opacity:1;stroke:none;stroke-width:2.02348661;stroke-linejoin:round;stroke-miterlimit:4;stroke-dasharray:none;stroke-opacity:1"
       d="m 524.56497,946.30191 c -86.21762,-29.22301 -99.02776,-34.07715 -95.96449,-36.3638 1.94435,-1.45138 32.51164,-20.85084 67.92731,-43.10989 59.15332,-37.17837 64.9473,-40.36686 71.21576,-39.19089 12.82531,2.40604 20.67921,-0.58253 27.98411,-10.64854 5.56429,-7.66747 6.29907,-9.85457 4.37953,-13.03584 -1.96644,-3.25901 -1.26395,-4.7084 4.76455,-9.8303 16.33969,-13.88242 138.0901,-90.80693 147.41902,-93.14248 1.17573,-0.29435 20.63739,11.71478 43.24812,26.68697 l 41.11042,27.22216 1.13353,21.26516 c 1.32688,24.89232 2.54809,28.74738 12.41007,39.17574 6.70376,7.08874 18.51515,27.02307 16.94307,28.59516 -0.3559,0.3559 -13.76796,8.03458 -29.80455,17.06373 -26.61273,14.98387 -30.98492,16.7693 -50.09632,20.45742 -24.931,4.81118 -54.90888,14.30954 -66.38476,21.03371 -10.11686,5.92788 -18.30148,16.3499 -24.16008,30.7647 -4.41568,10.86453 -4.49118,10.92601 -35.4949,28.90329 -17.08839,9.90859 -32.43351,17.98478 -34.10026,17.9471 -1.66676,-0.0378 -47.80531,-15.24472 -102.53013,-33.7934 z m 144.97229,-41.82038 c 4.58189,-4.14653 5.2071,-10.73151 1.49947,-15.79294 -1.46308,-1.99731 -7.74367,-4.41701 -14.9307,-5.75229 -11.0902,-2.06045 -13.10228,-1.89654 -18.97961,1.54614 -10.42144,6.10441 -11.7806,9.79948 -5.92311,16.10289 2.74074,2.94937 6.80143,6.08532 9.02377,6.96878 6.98874,2.77829 24.92242,0.89829 29.31018,-3.07258 z m 184.44792,-63.15984 c 2.32496,-3.99641 3.37744,-8.45997 2.66456,-11.30033 -1.82779,-7.28247 -11.18904,-15.35378 -19.31458,-16.65311 -6.87987,-1.10013 -7.30559,-1.58957 -6.60473,-7.59308 0.99133,-8.49136 -5.77376,-15.47125 -10.88431,-11.22988 -1.81189,1.50374 -6.34056,2.47163 -10.06372,2.15086 -5.89731,-0.50808 -6.94761,0.12702 -8.15313,4.93016 -1.74508,6.95297 3.07982,10.94431 13.23526,10.94874 l 7.19001,0.003 -7.07107,3.53239 c -14.35229,7.16977 -8.39582,21.21375 12.12183,28.5805 15.63306,5.61297 22.1279,4.79884 26.87988,-3.3694 z m -194.38606,-2.07898 c 8.58258,-3.41223 16.20583,-13.92319 14.6935,-20.25943 -1.86519,-7.81465 -2.05544,-8.01123 -13.23674,-13.67723 -11.33775,-5.74527 -20.8947,-5.57688 -41.55971,0.7323 -13.72895,4.19154 -18.66504,8.85157 -18.66504,17.62113 0,5.52335 1.42805,7.97877 7.20144,12.38235 3.96078,3.02104 10.55203,6.04158 14.64721,6.71231 8.73826,1.43119 29.43983,-0.53775 36.91934,-3.51143 z m 118.60494,-84.18215 c 4.87287,-6.19486 3.67903,-14.31085 -2.72206,-18.505 -7.54091,-4.941 -28.73581,-7.15422 -35.41847,-3.69848 -6.29103,3.25322 -8.8449,8.94485 -6.84332,15.25126 1.9528,6.15273 16.10441,11.83909 29.59377,11.89127 9.81579,0.038 12.03548,-0.67438 15.39008,-4.93905 z"
       id="path1135"
       inkscape:connector-curvature="0"
       transform="scale(0.26458333)" />
    <path
       style="display:inline;fill:url(#radialGradient7073);fill-opacity:1;stroke:none;stroke-width:1.01174331;stroke-linejoin:round;stroke-miterlimit:4;stroke-dasharray:none;stroke-opacity:1"
       d="m 619.78702,839.92026 c -5.81836,-1.65026 -13.69957,-8.00928 -16.22731,-13.09313 -1.57284,-3.16332 -1.66954,-4.25794 -0.64926,-7.34942 1.45893,-4.42061 7.78516,-8.76196 15.43935,-10.59521 2.88241,-0.69037 6.83173,-1.92513 8.77628,-2.74391 2.03345,-0.85622 8.26811,-1.70252 14.67486,-1.99197 10.62916,-0.48022 11.39252,-0.37644 16.66752,2.26608 8.43048,4.22326 11.56988,6.98531 13.05526,11.48605 1.74294,5.28116 0.39812,8.74004 -5.51864,14.19392 -6.10241,5.625 -14.89501,8.21159 -29.78763,8.76288 -7.91226,0.29289 -13.1518,-0.005 -16.43043,-0.93529 z"
       id="path1145"
       inkscape:connector-curvature="0"
       transform="scale(0.26458333)" />
    <path
       style="display:inline;fill:#dcbe5c;fill-opacity:1;stroke:none;stroke-width:1.01174331;stroke-linejoin:round;stroke-miterlimit:4;stroke-dasharray:none;stroke-opacity:1"
       d="m 593.96538,778.05757 c 0.34737,-5.18109 0.92716,-14.37962 1.28844,-20.44119 l 0.65687,-11.02104 12.51401,-7.81067 12.514,-7.81068 4.65859,-11.35386 4.65859,-11.35386 95.96449,-29.13646 c 52.78047,-16.02505 96.29374,-29.14745 96.69617,-29.16089 0.40242,-0.0134 1.4252,1.3167 2.27284,2.95586 1.68705,3.26239 1.86687,17.00942 0.66049,50.4914 l -0.63455,17.61127 -10.0055,4.35955 c -5.50302,2.39775 -10.36121,4.35954 -10.79598,4.35954 -0.43478,0 -11.5694,-7.08622 -24.74361,-15.74715 -13.17421,-8.66094 -24.56756,-15.98295 -25.31855,-16.27113 -3.16371,-1.21403 -95.23262,54.74624 -129.57341,78.75582 -8.87855,6.20748 -10.13448,6.76521 -18.68782,8.29873 -5.04328,0.90421 -9.97669,1.88047 -10.96312,2.16947 -1.65801,0.48575 -1.7458,-0.18626 -1.16195,-8.89471 z"
       id="path1155"
       inkscape:connector-curvature="0"
       transform="scale(0.26458333)" />
    <path
       id="path1157"
       transform="scale(0.26458333)"
       style="display:inline;fill:#f7eec5;fill-opacity:1;stroke:none;stroke-width:1.01174331;stroke-linejoin:round;stroke-miterlimit:4;stroke-dasharray:none;stroke-opacity:1"
       d="m 686.42188,588.1875 -84.14649,22.375 c -97.54209,25.93591 -114.75851,30.75481 -132.55859,37.10938 -11.74588,4.19323 -12.80908,4.76914 -10.60547,5.73046 1.34716,0.5877 28.35906,13.22325 60.02734,28.08008 31.66828,14.85683 58.03426,26.85992 58.58985,26.67383 0.55558,-0.1861 6.73183,-2.32291 13.7246,-4.74805 l 12.7129,-4.4082 12.64843,3.74805 12.64844,3.74609 96.19922,-29.20703 c 52.90885,-16.0637 96.39531,-29.40313 96.63672,-29.64453 1.00856,-1.00856 -1.01169,-3.75197 -4.48242,-6.08594 -2.04197,-1.37316 -32.44197,-13.94182 -67.55469,-27.93164 z"
       inkscape:connector-curvature="0" />
    <path
       style="display:inline;fill:#ddce93;fill-opacity:1;stroke:none;stroke-width:1.01174331;stroke-linejoin:round;stroke-miterlimit:4;stroke-dasharray:none;stroke-opacity:1"
       d="m 563.33327,787.34528 c -3.60207,-1.52951 -2.85396,-4.73328 1.6407,-7.02629 4.78357,-2.44039 8.64046,-6.86948 10.26287,-11.78544 1.87754,-5.689 10e-4,-10.36941 -6.50278,-16.22257 -4.74007,-4.26562 -12.69897,-8.21937 -62.61543,-31.10549 -31.45182,-14.4203 -57.18513,-26.53073 -57.18513,-26.91207 0,-0.38134 1.0837,-0.96535 2.40823,-1.29778 2.39813,-0.60189 2.41134,-0.68503 3.14722,-19.80748 0.40644,-10.56169 1.02736,-19.17185 1.37983,-19.13371 0.35248,0.0381 27.46041,12.65733 60.23986,28.04263 l 59.599,27.97328 9.16973,18.17185 9.16974,18.17185 -1.21107,19.98889 c -0.66608,10.99389 -1.53445,20.31255 -1.92969,20.70812 -1.11524,1.11619 -25.01781,1.31921 -27.57308,0.23421 z"
       id="path1159"
       inkscape:connector-curvature="0"
       transform="scale(0.26458333)" />
    <path
       style="display:inline;fill:#f4e7b0;fill-opacity:1;stroke:none;stroke-width:1.01174331;stroke-linejoin:round;stroke-miterlimit:4;stroke-dasharray:none;stroke-opacity:1"
       d="m 586.49916,727.10622 c -4.60514,-9.23035 -8.23529,-16.88805 -8.06702,-17.01712 0.16828,-0.12906 6.02681,-2.21711 13.01895,-4.64011 l 12.713,-4.40545 11.53066,3.42179 c 6.34187,1.88199 11.7017,3.54882 11.91074,3.70407 0.20904,0.15525 -1.53772,5.05402 -3.88169,10.88615 l -4.26175,10.60388 -11.56812,7.11462 c -6.36247,3.91305 -11.8952,7.11463 -12.29496,7.11463 -0.39976,0 -4.49467,-7.55211 -9.09981,-16.78246 z"
       id="path1161"
       inkscape:connector-curvature="0"
       transform="scale(0.26458333)" />
    <path
       style="display:inline;fill:url(#linearGradient7065);fill-opacity:1;stroke:none;stroke-width:1.43082106;stroke-linejoin:round;stroke-miterlimit:4;stroke-dasharray:none;stroke-opacity:1"
       d="m 799.01854,1081.9725 c -9.80613,-1.0489 -27.98012,-5.0892 -35.47444,-7.8864 -4.18952,-1.5637 -10.80026,-5.67 -14.69055,-9.1251 -7.49552,-6.6571 -9.54847,-7.2293 -16.82984,-4.6911 -5.83735,2.035 -7.99601,0.1947 -16.87727,-14.3882 -3.60895,-5.9258 -8.10823,-13.1121 -9.9984,-15.9696 -4.76188,-7.1986 -7.36386,-24.8653 -8.38733,-56.94747 l -0.84312,-26.42857 4.2334,7.14286 c 11.12454,18.77001 29.57941,29.10378 70.29612,39.36216 34.40506,8.66822 77.03105,12.07882 107.14285,8.57282 40.0133,-4.65889 75.97878,-19.41129 103.2335,-42.34455 l 10.91806,-9.1869 0.88256,4.70445 c 0.4854,2.58745 0.6763,19.14665 0.42421,36.79824 l -0.45833,32.09376 -4.18994,8.5714 c -11.75176,24.0408 -40.56263,39.4359 -85.49198,45.6827 -28.77479,4.0008 -84.13027,6.1532 -103.8895,4.0395 z"
       id="path1179"
       inkscape:connector-curvature="0"
       transform="scale(0.26458333)" />
    <path
       style="display:inline;fill:#c7c8c2;fill-opacity:1;stroke:none;stroke-width:1.43082106;stroke-linejoin:round;stroke-miterlimit:4;stroke-dasharray:none;stroke-opacity:1"
       d="m 350.11182,930.76637 c -66.7012,-30.74626 -145.77517,-73.98463 -147.15631,-80.46642 -1.40611,-6.599 -9.44207,-75.19024 -9.0189,-76.98118 0.31736,-1.34313 25.15631,10.23756 79.74664,37.18035 43.60715,21.5221 82.47967,40.0878 86.3834,41.25711 10.31206,3.08885 28.37456,4.06936 41.28112,2.24092 10.39503,-1.47263 41.82563,-12.67377 126.3866,-45.04124 7.33525,-2.80772 13.92454,-5.10494 14.64285,-5.10494 1.51959,0 1.69692,10.1268 0.39538,22.57931 l -0.91066,8.71271 -61.18543,38.28256 -61.18543,38.28256 -0.0467,12.27068 c -0.0447,11.74262 -0.20337,12.34205 -3.68542,13.92858 -2.2938,1.04512 -11.66588,1.61384 -25.35714,1.53874 l -21.71856,-0.11914 z"
       id="path4920"
       inkscape:connector-curvature="0"
       transform="scale(0.26458333)" />
    <path
       style="display:inline;fill:url(#linearGradient5020);fill-opacity:1;stroke:none;stroke-width:1.43082106;stroke-linejoin:round;stroke-miterlimit:4;stroke-dasharray:none;stroke-opacity:1"
       d="m 842.88147,738.0269 c -0.42489,-4.67797 0.0384,-7.60833 1.46949,-9.29523 1.65122,-1.94634 1.75907,-3.29595 0.51372,-6.42857 -1.1058,-2.78156 -1.69503,-49.58924 -1.97413,-156.82217 l -0.39786,-152.85714 3.09784,-5.71429 c 1.70382,-3.14286 6.24565,-9.25 10.09296,-13.57143 6.60651,-7.42064 42.80103,-52.92846 45.18001,-56.80537 0.6093,-0.99296 2.37083,-6.45724 3.9145,-12.14286 1.54367,-5.68561 3.05784,-11.06445 3.36481,-11.95298 0.39445,-1.14171 3.83742,-0.79948 11.73973,1.16692 13.51239,3.36241 45.46441,4.91806 59.75301,2.9092 5.5,-0.77325 10.18135,-1.24758 10.403,-1.05407 0.22165,0.19351 1.5801,4.4562 3.01878,9.47264 3.67733,12.8223 13.53697,28.27999 35.35927,55.43545 24.6857,30.71852 26.5663,34.56183 27.3188,55.82822 0.3197,9.03571 -0.763,67.21428 -2.4059,129.28571 -1.643,62.07143 -2.9855,117.2589 -2.9835,122.63881 v 9.78168 l -22.5,-0.98133 c -27.2841,-1.18999 -68.15179,1.09521 -92.13759,5.15207 -36.38786,6.15447 -66.62409,19.23698 -86.2863,37.33407 l -5.92392,5.45237 -0.62052,-6.8317 z"
       id="path1191"
       inkscape:connector-curvature="0"
       transform="scale(0.26458333)" />
    <path
       style="display:inline;fill:url(#linearGradient5028);fill-opacity:1;stroke:none;stroke-width:1.43082106;stroke-linejoin:round;stroke-miterlimit:4;stroke-dasharray:none;stroke-opacity:1"
       d="m 1173.5254,733.08059 c -22.0461,-16.77525 -69.0789,-31.91595 -106.8278,-34.38978 -8.0304,-0.52626 -14.5854,-1.34236 -14.5666,-1.81353 2.1638,-54.27577 6.4632,-264.68311 5.5424,-271.23826 -1.4145,-10.0691 -4.7713,-17.43087 -13.0711,-28.66591 l -5.6771,-7.68487 1.6857,-13.77667 c 5.0047,-40.90201 16.9858,-73.6961 36.1074,-98.83121 14.2503,-18.73187 41.301,-62.32319 43.6624,-70.36065 2.27,-7.72612 2.6663,-8.21066 6.0019,-7.33847 31.0701,8.12409 67.9967,11.1194 96.8204,7.85362 8.4273,-0.95483 16.3825,-2.03353 17.6782,-2.39709 1.8162,-0.50962 3.2487,1.72303 6.2536,9.74661 6.4374,17.18861 21.0428,45.35582 34.4029,66.34759 15.415,24.22064 19.0658,31.48262 25.4184,50.56127 10.8243,32.50815 10.628,25.06698 3.8974,147.7845 -3.2751,59.71428 -5.9423,109.59891 -5.9271,110.85474 0.024,1.94696 -3.0764,2.42583 -21.0438,3.2508 -69.5612,3.19389 -112.3493,14.80177 -131.1198,35.57117 -9.3775,10.37602 -10.9379,24.33092 -3.95,35.32329 6.0355,9.49408 18.1431,24.55385 23.2661,28.93893 l 5.7168,4.89334 1.4492,14.86957 c 0.797,8.17827 1.8213,17.2803 2.2761,20.22673 0.4549,2.94643 0.2883,5.31411 -0.37,5.26151 -0.6584,-0.0526 -4.0899,-2.29684 -7.6256,-4.98723 z"
       id="path1201"
       inkscape:connector-curvature="0"
       transform="scale(0.26458333)" />
    <path
       style="display:inline;fill:#f2edd9;fill-opacity:1;stroke:none;stroke-width:1.01174331;stroke-linejoin:round;stroke-miterlimit:4;stroke-dasharray:none;stroke-opacity:1"
       d="m 987.17537,830.5113 c -1.94454,-0.22226 -8.76307,-0.8949 -15.15229,-1.49477 -23.82118,-2.2365 -47.0941,-6.90648 -68.18529,-13.68218 -11.7492,-3.77452 -33.47166,-13.90636 -38.11941,-17.77976 l -2.76407,-2.30355 1.57847,-6.79503 c 2.58488,-11.12735 11.74074,-19.79171 22.63749,-21.42226 9.13278,-1.36659 10.29885,-1.85823 18.06523,-7.61665 7.8308,-5.80618 7.97218,-5.86199 15.12725,-5.9709 8.91181,-0.13565 15.8353,-1.6207 18.9394,-4.06238 1.29718,-1.02037 6.99523,-3.33436 12.66233,-5.14221 9.98683,-3.18588 10.65762,-3.26522 21.80409,-2.57881 8.90001,0.54806 11.86415,0.4054 13.10962,-0.63098 1.40608,-1.17001 7.67796,-1.79633 30.09671,-3.0055 5.2646,-0.28395 21.5837,1.57871 24.6195,2.81006 1.8735,0.75991 5.0555,1.39247 7.0711,1.40569 2.0156,0.0132 7.5285,0.87412 12.251,1.91311 8.3956,1.84712 8.7209,1.84688 14.6472,-0.011 8.8612,-2.77794 14.3286,-2.52003 19.7528,0.93179 2.47,1.57186 5.0935,3.5918 5.83,4.48876 0.7366,0.89697 4.2804,2.60962 7.8752,3.80591 5.3402,1.7771 7.79,2.04916 13.3887,1.4869 11.4308,-1.14796 20.3285,2.61254 20.3285,8.59161 0,2.53873 0.9793,3.49394 7.8286,7.63555 5.8732,3.55131 9.6573,6.89031 15.1492,13.36688 l 7.3204,8.63308 -4.795,3.41748 c -21.2155,15.12039 -58.3658,26.79226 -102.2748,32.13262 -12.8707,1.56537 -69.67747,2.9183 -78.79193,1.87654 z"
       id="path1189"
       inkscape:connector-curvature="0"
       transform="scale(0.26458333)" />
    <path
       style="display:inline;fill:#dead7a;fill-opacity:1;stroke:none;stroke-width:1.43082106;stroke-linejoin:round;stroke-miterlimit:4;stroke-dasharray:none;stroke-opacity:1"
       d="m 854.92448,788.00709 c -3.36811,-3.65396 -7.03909,-8.83409 -8.15774,-11.51141 -17.60904,-42.14437 79.48598,-79.15466 192.59776,-73.41364 96.3881,4.89222 162.7055,39.06874 145.3557,74.9087 -1.5784,3.26049 -4.4959,7.45583 -6.4834,9.32297 l -3.6136,3.39481 -9.5881,-10.03093 c -5.2734,-5.51701 -11.9987,-11.26272 -14.9451,-12.76823 -3.7917,-1.93739 -5.3572,-3.67642 -5.3572,-5.95094 0,-5.58912 -6.1893,-8.19752 -21.3867,-9.01316 -13.2215,-0.70959 -13.973,-0.93599 -22.9056,-6.90097 -9.6813,-6.46492 -13.4596,-7.00165 -26.2484,-3.72876 -4.4896,1.14896 -26.2006,-1.53512 -32.9791,-4.07712 -5.8156,-2.18087 -51.71629,-1.73476 -54.44412,0.52915 -1.39697,1.15938 -5.26455,1.37308 -12.52942,0.6923 -11.78974,-1.10479 -22.05743,1.11595 -34.50664,7.46325 -5.17452,2.63826 -9.84438,3.75261 -16.94638,4.04388 -8.0378,0.32964 -10.83782,1.12468 -15.54603,4.41413 -11.32057,7.90929 -13.26159,8.99726 -16.07902,9.01253 -6.67158,0.0362 -14.42412,3.50521 -20.35381,9.10777 -5.00883,4.73249 -6.70625,7.59342 -8.05293,13.57283 l -1.70635,7.5764 z"
       id="path1185"
       inkscape:connector-curvature="0"
       transform="scale(0.26458333)" />
    <path
       style="display:inline;fill:url(#linearGradient5052);fill-opacity:1;stroke:none;stroke-width:1.43082106;stroke-linejoin:round;stroke-miterlimit:4;stroke-dasharray:none;stroke-opacity:1"
       d="m 987.58996,861.45042 c -39.90366,-4.38413 -80.05104,-16.5772 -116.42857,-35.36025 -15.32754,-7.91418 -22.29493,-13.87229 -26.58466,-22.73368 -2.73866,-5.65733 -3.27215,-9.59565 -3.8427,-28.36756 l -0.66252,-21.79819 7.6878,-8.14693 c 29.57778,-31.34423 86.04979,-47.00737 166.25919,-46.11384 l 20,0.2228 -27.8571,0.99801 c -32.29768,1.15708 -49.74916,3.06341 -73.42125,8.02023 -60.76756,12.72444 -96.46669,38.68327 -89.38181,64.9945 7.16451,26.60695 50.14332,47.23476 119.23162,57.22558 8.17647,1.18239 27.67929,1.85926 53.57144,1.85926 25.8921,0 45.395,-0.67687 53.5714,-1.85926 69.1991,-10.00684 111.268,-30.10217 119.3266,-56.9996 3.1803,-10.61492 -2.0207,-23.60967 -13.4491,-33.60271 -2.4469,-2.13958 -3.6689,-3.90744 -2.7155,-3.92857 2.4674,-0.0547 20.1945,16.83063 22.6453,21.56999 1.4962,2.89333 2.0499,9.40038 2.0499,24.09183 0,16.97533 -0.4264,20.96351 -2.722,25.46325 -3.5679,6.99382 -15.1197,17.69721 -23.8741,22.12078 -22.5367,11.38779 -70.0376,25.51389 -101.9754,30.32606 -18.0369,2.71767 -64.566,3.87096 -81.42854,2.0183 z"
       id="path1183"
       inkscape:connector-curvature="0"
       transform="scale(0.26458333)" />
    <path
       style="display:inline;fill:url(#linearGradient7057);fill-opacity:1;stroke:none;stroke-width:1.43082106;stroke-linejoin:round;stroke-miterlimit:4;stroke-dasharray:none;stroke-opacity:1"
       d="m 1004.3097,945.94651 c -8.49558,-0.90676 -10.93097,-2.67434 -10.99753,-7.98188 -0.12725,-10.14648 -15.91206,-30.17424 -31.94528,-40.53214 -9.88158,-6.38377 -32.42739,-14.26845 -54.63682,-19.10748 l -14.76725,-3.21752 -8.44529,-12.85714 c -10.30508,-15.6885 -22.26631,-36.29112 -21.49416,-37.02263 0.31163,-0.29523 7.63802,2.8701 16.28088,7.03407 67.68753,32.61056 140.90425,40.98622 216.42855,24.75843 18.7234,-4.02308 42.9476,-11.50183 61.7986,-19.07913 8.7192,-3.50478 16.0172,-6.20826 16.2178,-6.00773 0.2005,0.20052 -5.2311,9.49437 -12.0703,20.653 -11.9505,19.49831 -12.8738,20.59015 -23.7078,28.03594 -16.0784,11.05003 -32.0842,25.30883 -43.2773,38.55368 -5.3214,6.29688 -10.7559,12.57378 -12.0766,13.94865 -3.2674,3.40138 -26.5225,10.67502 -40.202,12.57425 -11.7784,1.63527 -23.3791,1.71269 -37.1055,0.24763 z"
       id="path1181"
       inkscape:connector-curvature="0"
       transform="scale(0.26458333)" />
    <path
       style="display:inline;fill:url(#radialGradient7081);fill-opacity:1;stroke:none;stroke-width:1.01174331;stroke-linejoin:round;stroke-miterlimit:4;stroke-dasharray:none;stroke-opacity:1"
       d="m 746.45092,755.01968 c -11.73797,-5.08346 -14.89257,-10.44673 -9.74375,-16.56577 4.26433,-5.06786 7.35703,-5.76478 19.80595,-4.46314 15.88819,1.66125 22.29331,5.43449 22.49834,13.25372 0.28511,10.87352 -16.27524,14.828 -32.56054,7.77519 z"
       id="path1147"
       inkscape:connector-curvature="0"
       transform="scale(0.26458333)" />
    <path
       style="display:inline;fill:#ceac4b;fill-opacity:1;stroke:#000000;stroke-width:0.17885263;stroke-linejoin:round;stroke-miterlimit:4;stroke-dasharray:none;stroke-opacity:1"
       d="m 811.64954,877.85821 c 0.28709,-0.26015 58.14787,-32.7456 58.45385,-32.81843 0.20965,-0.0499 0.79363,0.78734 2.16222,3.09988 1.55538,2.62816 6.98273,11.41547 8.09821,13.11164 l 0.31008,0.47151 -8.35162,5.75872 -8.35162,5.75872 -4.91502,-0.0346 c -7.88526,-0.0554 -13.49939,0.24635 -19.91503,1.07058 -7.37761,0.94782 -19.11536,2.52911 -23.72653,3.1964 -4.24291,0.614 -3.98782,0.58787 -3.76454,0.38554 z"
       id="path1141"
       inkscape:connector-curvature="0"
       transform="scale(0.26458333)" />
    <path
       style="display:inline;fill:#c48506;fill-opacity:1;stroke:none;stroke-width:1.01174331;stroke-linejoin:round;stroke-miterlimit:4;stroke-dasharray:none;stroke-opacity:1"
       d="m 654.84234,906.3179 c -2.12948,-1.10479 -3.5394,-1.1986 -5.96798,-0.3971 -2.26741,0.74832 -4.1365,0.71593 -6.51402,-0.11288 -3.69639,-1.28857 -12.20381,-9.24673 -12.20381,-11.41591 0,-1.67896 5.90631,-7 10.28103,-9.26225 3.34465,-1.72959 10.8079,-1.46202 19.51847,0.69976 7.70899,1.9132 9.46465,3.00397 10.65876,6.62214 2.09801,6.35706 -0.40754,10.06986 -9.29614,13.77527 -3.22227,1.34328 -4.04033,1.35477 -6.47631,0.091 z"
       id="path1143"
       inkscape:connector-curvature="0"
       transform="scale(0.26458333)" />
    <path
       style="display:inline;fill:#cf9b13;fill-opacity:1;stroke:none;stroke-width:0.08942632;stroke-linejoin:round;stroke-miterlimit:4;stroke-dasharray:none;stroke-opacity:1"
       d="m 814.76088,811.15157 c -2.18602,-0.26525 -4.80868,-0.84076 -6.78571,-1.48905 -2.71816,-0.89131 -4.34423,-1.89442 -4.64131,-2.8632 -0.16012,-0.52217 -0.14174,-2.50849 0.0366,-3.95213 0.13161,-1.06556 0.53247,-3.45598 0.63892,-3.8101 0.0919,-0.30572 2.87877,-0.85248 4.76938,-0.93572 2.49812,-0.10998 4.51394,0.39724 6.24168,1.57052 l 0.55081,0.37405 0.51001,-0.10387 c 2.09618,-0.42694 3.93965,-1.92997 5.42065,-4.41962 l 0.54405,-0.91459 0.93712,0.41849 c 3.57978,1.59862 5.59162,3.3351 6.01363,5.19054 0.182,0.80016 0.17562,1.30857 -0.0371,2.95894 -0.13731,1.06525 -0.15746,1.49615 -0.0911,1.94814 0.12686,0.86382 0.104,2.29048 -0.0469,2.9308 -0.25603,1.08602 -0.9085,2.08217 -1.77491,2.70979 l -0.34825,0.25227 h -4.76339 c -4.1746,0 -4.76339,0.0165 -4.76339,0.13393 0,0.16887 -1.02282,0.16921 -2.41072,8e-4 z"
       id="path1149"
       inkscape:connector-curvature="0"
       transform="scale(0.26458333)" />
    <path
       style="display:inline;fill:#dcb755;fill-opacity:1;stroke:none;stroke-width:0.35770527;stroke-linejoin:round;stroke-miterlimit:4;stroke-dasharray:none;stroke-opacity:1"
       d="m 838.24387,846.29511 c -1.06007,-0.35787 -4.28164,-1.74975 -7.15905,-3.09306 -6.33176,-2.95596 -8.07244,-3.53115 -8.97689,-2.96631 -0.85974,0.53691 -3.22096,-0.67572 -7.3503,-3.77484 -3.42595,-2.57122 -4.12696,-3.49558 -5.15906,-6.80277 -2.50889,-8.03931 1.63833,-12.40434 13.452,-14.1585 15.24259,-2.26331 25.19021,1.68146 30.05047,11.91663 1.55116,3.26657 1.58503,3.41404 1.43545,6.25 -0.17322,3.28407 -1.02109,5.49912 -3.50507,9.15695 -1.24163,1.82837 -1.86901,2.37981 -3.68424,3.23828 -1.84652,0.87327 -2.57683,1.02293 -4.68185,0.95949 -1.37174,-0.0413 -3.36139,-0.36799 -4.42146,-0.72587 z"
       id="path1151"
       inkscape:connector-curvature="0"
       transform="scale(0.26458333)" />
    <path
       style="display:inline;fill:#dfcd9d;fill-opacity:1;stroke:none;stroke-width:1.43082106;stroke-linejoin:round;stroke-miterlimit:4;stroke-dasharray:none;stroke-opacity:1"
       d="m 1106.8757,1047.9642 c -0.7857,-0.269 -4.4791,-0.9001 -8.2075,-1.4023 -12.4373,-1.6754 -22.4033,-14.2423 -20.3254,-25.6299 0.5845,-3.2035 0.9571,-9.4284 0.8279,-13.8332 l -0.2349,-8.00862 7.6148,-5.87472 c 10.3757,-8.00485 18.429,-11.30783 37.3331,-15.31181 29.7938,-6.31048 48.1755,-8.02512 99.4205,-9.27389 27.1072,-0.66057 55.0715,-1.93426 62.1429,-2.83043 7.0714,-0.89618 23.8923,-1.73988 37.3798,-1.87491 22.8819,-0.22908 24.7935,-0.0449 28.5714,2.75356 4.9012,3.63047 6.0521,11.26518 2.7084,17.96765 -1.5968,3.20093 -2.231,8.73711 -2.231,19.47507 0,13.7034 -0.3019,15.3986 -3.4856,19.5726 -5.9882,7.851 -16.6859,11.7357 -41.152,14.9438 -54.3406,7.1254 -101.8317,10.0769 -159.6481,9.9217 -21.6072,-0.058 -39.9286,-0.3256 -40.7143,-0.5946 z"
       id="path1173"
       inkscape:connector-curvature="0"
       transform="scale(0.26458333)" />
    <path
       style="display:inline;fill:#f7cf93;fill-opacity:1;stroke:none;stroke-width:1.43082106;stroke-linejoin:round;stroke-miterlimit:4;stroke-dasharray:none;stroke-opacity:1"
       d="m 1079.8738,1051.2799 c -10.4203,-8.5892 -14.2042,-23.1593 -14.2173,-54.74384 -0.01,-18.52858 0.4237,-22.6638 3.1873,-30.55593 7.7518,-22.13712 19.5555,-39.52848 40.418,-59.5511 38.8009,-37.23901 64.6219,-46.08684 143.5823,-49.20002 35.7411,-1.40916 40.738,-1.33694 44.569,0.64419 5.2618,2.72096 10.3507,9.39174 13.6332,17.87117 1.3523,3.49315 4.9029,10.56458 7.8904,15.71429 13.9066,23.97224 35.8265,70.52318 34.0462,72.30347 -0.3302,0.3302 -3.3201,-0.46802 -6.6444,-1.77381 -5.4689,-2.14826 -8.6535,-2.20663 -33.4677,-0.61341 -15.083,0.96843 -34.5045,2.6375 -43.1587,3.70907 -10.4401,1.29268 -23.1793,1.68361 -37.8572,1.16172 -46.7948,-1.66382 -115.2946,7.08024 -135.3772,17.28104 -3.7097,1.88431 -9.8676,6.17991 -13.6843,9.54578 -6.6838,5.89439 -6.9046,6.33389 -5.9949,11.93448 1.1891,7.3214 1.1876,7.3718 -0.4682,15.1005 -1.6877,7.8776 1.2299,15.4879 8.5797,22.3791 8.5263,7.9945 11.9719,8.373 72.5672,7.9717 30.188,-0.1999 54.6166,-0.1058 54.2857,0.209 -0.6124,0.5829 -63.8578,3.1822 -104.3593,4.2891 l -22.3293,0.6103 z"
       id="path1175"
       inkscape:connector-curvature="0"
       transform="scale(0.26458333)" />
    <path
       style="display:inline;fill:#d9c17b;fill-opacity:1;stroke:none;stroke-width:2.02348661;stroke-linejoin:round;stroke-miterlimit:4;stroke-dasharray:none;stroke-opacity:1"
       d="m 528.10015,989.6109 c -52.78047,-19.1632 -98.01005,-36.14448 -100.51018,-37.73619 -4.11355,-2.61888 -4.54569,-4.48034 -4.54569,-19.58062 0,-9.17764 0.43242,-16.68662 0.96092,-16.68662 2.25567,0 200.17712,67.26944 201.3232,68.42562 0.69507,0.7012 1.75861,10.139 2.36345,20.97291 0.8014,14.3546 0.45859,19.6639 -1.26376,19.5725 -1.2999,-0.069 -45.54747,-15.8044 -98.32794,-34.9676 z"
       id="path1137"
       inkscape:connector-curvature="0"
       transform="scale(0.26458333)" />
    <path
       style="display:inline;fill:#ceac4b;fill-opacity:1;stroke:none;stroke-width:2.02348661;stroke-linejoin:round;stroke-miterlimit:4;stroke-dasharray:none;stroke-opacity:1"
       d="m 630.77494,1008.7399 c -0.19842,-8.99845 -0.42571,-18.34961 -0.50508,-20.78034 -0.11793,-3.61168 5.21029,-7.52337 29.15012,-21.40042 16.11193,-9.33951 30.43084,-17.44851 31.8198,-18.02 1.91173,-0.78659 2.50622,3.30901 2.4465,16.85474 l -0.0789,17.89381 -25.39225,17.17261 c -13.96574,9.4449 -28.02187,18.8529 -31.23584,20.9065 l -5.84359,3.7339 z"
       id="path1139"
       inkscape:connector-curvature="0"
       transform="scale(0.26458333)" />
    <path
       style="display:inline;fill:#e3dac7;fill-opacity:1;stroke:none;stroke-width:1.43082106;stroke-linejoin:round;stroke-miterlimit:4;stroke-dasharray:none;stroke-opacity:1"
       d="m 363.68325,850.35574 c -10.36754,-2.66806 -168.42043,-80.7467 -175.71588,-86.80422 -4.84663,-4.02422 -7.40971,-8.27198 -4.99127,-8.27198 0.39678,0 37.20035,17.39392 81.78571,38.65316 47.20045,22.50617 84.64493,39.50881 89.63573,40.70144 14.5736,3.48259 34.01708,4.06649 51.83683,1.55671 14.44544,-2.03454 23.11667,-4.80059 83.35943,-26.59103 36.98028,-13.37616 67.493,-24.32028 67.80602,-24.32028 1.99365,0 0.009,7.14679 -2.64514,9.52495 -1.76786,1.58408 -35.35714,14.95499 -74.64286,29.71313 l -71.42857,26.833 -18.57143,0.51357 c -12.88018,0.35618 -20.97925,-0.10609 -26.42857,-1.50845 z"
       id="path4944"
       inkscape:connector-curvature="0"
       transform="scale(0.26458333)" />
    <path
       style="display:inline;fill:#eff3f2;fill-opacity:1;stroke:none;stroke-width:1.43082106;stroke-linejoin:round;stroke-miterlimit:4;stroke-dasharray:none;stroke-opacity:1"
       d="m 357.66644,833.08059 c -12.9372,-2.90375 -172.94748,-79.05508 -184.604,-87.85584 -7.50464,-5.66606 -8.12818,-6.55741 -7.34087,-10.49393 1.10957,-5.54786 4.21803,-10.23312 8.76647,-13.21338 4.92276,-3.22552 141.32128,-44.44242 155.62378,-47.02639 6.28572,-1.13561 18.3098,-2.06563 26.72019,-2.0667 15.24561,-0.002 15.40464,0.0342 52.85714,12.00368 34.4179,10.99969 42.4134,14.23775 95.42267,38.64487 48.00016,22.10076 58.76983,27.59081 63.21429,32.22475 3.42124,3.56711 5.35714,6.94549 5.35714,9.3489 0,5.56618 -5.05301,11.67833 -12.97224,15.69131 -9.40023,4.76346 -134.22471,49.83343 -144.17061,52.05522 -12.59352,2.81323 -47.58282,3.22183 -58.87396,0.68751 z M 475.11182,805.9864 c 80.96938,-28.02151 84.82882,-29.85774 86.6756,-41.2381 1.57703,-9.71809 -0.87452,-11.02442 -95.2641,-50.76207 -89.54332,-37.69739 -96.12827,-39.96672 -116.31657,-40.08542 -6.91275,-0.0407 -22.06645,4.04477 -82.14285,22.14559 -40.5165,12.2075 -75.53078,22.93263 -77.80951,23.83363 -6.06027,2.39621 -13.71399,10.59804 -13.71399,14.69609 0,2.08643 1.86487,5.24019 4.64285,7.8517 2.88554,2.71263 35.60464,19.27087 86.44417,43.74702 93.1086,44.82617 89.72363,43.64298 122.4844,42.8131 l 20,-0.50665 z"
       id="path4946"
       inkscape:connector-curvature="0"
       transform="scale(0.26458333)" />
    <path
       style="display:inline;fill:#e7e9dc;fill-opacity:1;stroke:none;stroke-width:1.01174331;stroke-linejoin:round;stroke-miterlimit:4;stroke-dasharray:none;stroke-opacity:1"
       d="m 533.58061,768.23944 -9.13597,-12.09848 -13.9157,-7.80373 c -7.65363,-4.29204 -20.05237,-11.54185 -27.55275,-16.11068 -10.80545,-6.5821 -17.59602,-9.80451 -32.70346,-15.51918 -10.81234,-4.08997 -24.61601,-10.23083 -31.88572,-14.18503 -11.14121,-6.06004 -14.92646,-7.52485 -28.91586,-11.18987 -14.44308,-3.78388 -17.67293,-4.27321 -31.4432,-4.76377 -27.27112,-0.97151 -35.54597,0.34181 -75.28026,11.94794 -60.96345,17.80703 -66.56944,19.63267 -78.2051,25.46817 -11.49596,5.76544 -15.47511,9.51636 -17.08411,16.10426 -0.37444,1.5331 -1.03922,3.00898 -1.47728,3.27972 -1.35972,0.84035 -7.06093,-6.50655 -7.06093,-9.09912 0,-2.93801 5.5169,-8.76338 10.88597,-11.49464 2.06868,-1.05234 37.17204,-12.01511 78.00745,-24.3617 l 74.24622,-22.44835 12.12183,0.52212 c 6.667,0.28716 15.47303,1.29541 19.56894,2.24056 4.51555,1.04197 40.88761,15.79426 92.39649,37.47546 77.35789,32.56159 85.33592,36.13638 89.27498,40.00228 3.27661,3.21574 4.32563,5.01546 4.32563,7.42111 0,4.70761 -3.76754,9.33038 -10.78845,13.23741 l -6.24275,3.474 z"
       id="path4948"
       inkscape:connector-curvature="0"
       transform="scale(0.26458333)" />
    <path
       style="display:inline;fill:#e1d1ae;fill-opacity:1;stroke:none;stroke-width:0.50587165;stroke-linejoin:round;stroke-miterlimit:4;stroke-dasharray:none;stroke-opacity:1"
       d="m 833.81162,707.62905 c -3.05571,-1.35448 -5.73918,-2.53113 -5.96327,-2.61479 -0.22408,-0.0837 -0.16959,-7.98912 0.12109,-17.56769 0.93823,-30.91588 0.94543,-30.56262 -0.69678,-34.20205 -0.7816,-1.73217 -1.73246,-3.40781 -2.11302,-3.72365 -0.38056,-0.31583 -0.69193,-1.02749 -0.69193,-1.58146 0,-0.80224 0.23128,-0.94236 1.13642,-0.6885 0.62504,0.17529 4.37523,1.13913 8.33376,2.14186 l 7.19734,1.82315 v 18.03847 c 0,24.03868 -0.50322,40.94388 -1.21699,40.88375 -0.30293,-0.0255 -3.0509,-1.15462 -6.10662,-2.50909 z"
       id="path4972"
       inkscape:connector-curvature="0"
       transform="scale(0.26458333)" />
    <path
       style="display:inline;fill:#ccccc0;fill-opacity:1;stroke:none;stroke-width:1.01174331;stroke-linejoin:round;stroke-miterlimit:4;stroke-dasharray:none;stroke-opacity:1"
       d="m 545.61676,813.96394 c 0.0213,-9.45395 0.93332,-12.2971 4.32392,-13.47907 2.56318,-0.89353 3.85342,-0.69146 7.70558,1.20678 4.22433,2.08165 6.10186,2.28598 21.57931,2.34845 14.26799,0.0576 17.2134,0.32942 18.60057,1.71659 1.5241,1.5241 1.46669,1.91298 -0.76275,5.16664 -2.21414,3.23132 -3.11389,3.65412 -11.02442,5.18048 -4.73744,0.91411 -15.77298,1.91842 -24.52342,2.23182 l -15.90991,0.56982 z"
       id="path4950"
       inkscape:connector-curvature="0"
       transform="scale(0.26458333)" />
    <path
       style="display:inline;fill:#b2ab8e;fill-opacity:1;stroke:none;stroke-width:0.50587165;stroke-linejoin:round;stroke-miterlimit:4;stroke-dasharray:none;stroke-opacity:1"
       d="m 563.93995,801.93525 c -2.91286,-0.63318 -6.54564,-2.05071 -8.19489,-3.19768 -0.57717,-0.40139 -0.35714,-0.90765 1.16837,-2.68828 1.15718,-1.35069 2.18512,-3.29176 2.67486,-5.05093 l 0.79541,-2.85718 2.07683,0.77947 c 2.83106,1.06254 16.2486,1.43823 24.30677,0.68059 3.4424,-0.32365 10.40805,-1.3646 15.47921,-2.31321 5.07115,-0.9486 9.28991,-1.65511 9.37501,-1.57 0.0851,0.0851 -2.5997,2.17814 -5.96624,4.6512 -5.61203,4.1226 -6.28473,4.79434 -8.09051,8.07904 l -1.96954,3.58257 -8.41226,0.33177 c -12.21787,0.48186 -19.69256,0.34442 -23.24302,-0.42736 z"
       id="path4962"
       inkscape:connector-curvature="0"
       transform="scale(0.26458333)" />
    <path
       style="display:inline;fill:#b5b18c;fill-opacity:1;stroke:none;stroke-width:0.50587165;stroke-linejoin:round;stroke-miterlimit:4;stroke-dasharray:none;stroke-opacity:1"
       d="m 810.13243,734.59886 c -2.42973,-1.57723 -4.41444,-2.98134 -4.41047,-3.12024 0.005,-0.18853 32.62653,-14.30338 34.73178,-15.0281 0.20506,-0.0706 0.65525,1.06583 1.00042,2.52538 0.34516,1.45956 1.10104,3.29663 1.67972,4.0824 0.57869,0.78576 0.97532,1.48481 0.88141,1.55343 -0.89224,0.652 -28.29426,12.91879 -28.79713,12.89132 -0.36742,-0.0201 -2.656,-1.32695 -5.08573,-2.90419 z"
       id="path4964"
       inkscape:connector-curvature="0"
       transform="scale(0.26458333)" />
    <path
       style="display:inline;fill:#bcbeb5;fill-opacity:1;stroke:none;stroke-width:0.50587165;stroke-linejoin:round;stroke-miterlimit:4;stroke-dasharray:none;stroke-opacity:1"
       d="m 827.25899,713.64324 c 0.19962,-3.70793 0.41744,-6.80511 0.48406,-6.88261 0.0666,-0.0775 2.93665,1.07011 6.37784,2.55025 5.84592,2.51445 6.25673,2.78275 6.25673,4.08623 0,1.29634 -0.40693,1.57074 -5.74888,3.87664 -3.16188,1.36485 -6.19523,2.62322 -6.74078,2.79637 -0.96399,0.30596 -0.98169,0.12518 -0.62897,-6.42688 z"
       id="path4970"
       inkscape:connector-curvature="0"
       transform="scale(0.26458333)" />
    <path
       style="display:inline;fill:#886837;fill-opacity:1;stroke:none;stroke-width:0.50587165;stroke-linejoin:round;stroke-miterlimit:4;stroke-dasharray:none;stroke-opacity:1"
       d="m 566.58838,825.13644 -6.0302,-1.19313 -1.65116,1.02047 -1.65116,1.02047 -5.19808,-1.57682 c -2.85894,-0.86726 -5.59583,-1.69076 -6.08196,-1.82999 -0.48614,-0.13924 -0.88389,-0.53315 -0.88389,-0.87537 0,-0.46152 3.42414,-0.78062 13.25825,-1.23559 13.63491,-0.63081 21.54475,-1.43678 29.92189,-3.04886 2.64116,-0.50826 4.80211,-0.83484 4.80211,-0.72572 0,0.86971 -5.78088,7.75355 -6.68796,7.96398 -2.16804,0.50294 -11.49202,1.77691 -12.62788,1.72538 -0.62686,-0.0284 -3.85334,-0.58861 -7.16996,-1.24482 z"
       id="path4958"
       inkscape:connector-curvature="0"
       transform="scale(0.26458333)" />
    <path
       style="display:inline;opacity:0.88899997;fill:#636363;fill-opacity:0.38431373;stroke:none;stroke-width:0.35770527;stroke-linejoin:round;stroke-miterlimit:4;stroke-dasharray:none;stroke-opacity:1"
       d="m 544.28636,832.11169 c 0.0934,-1.13443 0.26654,-3.46885 0.38468,-5.1876 0.11813,-1.71875 0.31114,-3.125 0.4289,-3.125 0.46184,0 9.91543,2.94554 10.15091,3.16281 0.20573,0.18982 -7.25941,5.08474 -10.30487,6.75694 l -0.8295,0.45546 z"
       id="path5364"
       inkscape:connector-curvature="0"
       transform="scale(0.26458333)" />
    <path
       style="display:inline;fill:#ccccc0;fill-opacity:1;stroke:none;stroke-width:1.01174331;stroke-linejoin:round;stroke-miterlimit:4;stroke-dasharray:none;stroke-opacity:1"
       d="m 821.62983,741.73108 c -1.80565,-1.15637 -3.283,-2.41449 -3.283,-2.79583 0,-0.64563 20.2394,-10.21994 21.6042,-10.21994 0.34054,0 0.61916,1.80451 0.61916,4.01002 v 4.01002 l -7.71841,3.56612 c -4.24512,1.96137 -7.76803,3.55847 -7.82868,3.54911 -0.0607,-0.009 -1.58763,-0.96314 -3.39327,-2.1195 z"
       id="path4952"
       inkscape:connector-curvature="0"
       transform="scale(0.26458333)" />
    <path
       style="display:inline;opacity:0.88899997;fill:#636363;fill-opacity:0.38431373;stroke:none;stroke-width:0.35770527;stroke-linejoin:round;stroke-miterlimit:4;stroke-dasharray:none;stroke-opacity:1"
       d="m 834.56795,750.82813 -4.02006,-2.6133 5.28765,-2.50974 5.28765,-2.50975 0.20795,2.53402 c 0.1961,2.38971 0.13831,2.66621 -1.01482,4.85544 -0.67252,1.27679 -1.33651,2.44185 -1.47554,2.58903 -0.13903,0.14718 -2.06181,-0.90839 -4.27283,-2.3457 z"
       id="path5362"
       inkscape:connector-curvature="0"
       transform="scale(0.26458333)" />
    <path
       style="display:inline;fill:#b2ab8e;fill-opacity:1;stroke:none;stroke-width:0.50587165;stroke-linejoin:round;stroke-miterlimit:4;stroke-dasharray:none;stroke-opacity:1"
       d="m 827.80873,746.21366 -1.3886,-0.91567 6.89157,-3.24788 c 3.79036,-1.78634 7.08582,-3.32364 7.32325,-3.41624 0.23742,-0.0926 0.43168,0.53054 0.43168,1.38474 0,1.47094 -0.29346,1.70027 -5.54743,4.33524 -3.05108,1.53017 -5.72167,2.78064 -5.93464,2.77881 -0.21297,-0.002 -1.0121,-0.41538 -1.77583,-0.919 z"
       id="path4960"
       inkscape:connector-curvature="0"
       transform="scale(0.26458333)" />
    <path
       style="display:inline;opacity:0.88899997;fill:#636363;fill-opacity:0.38431373;stroke:none;stroke-width:0.35770527;stroke-linejoin:round;stroke-miterlimit:4;stroke-dasharray:none;stroke-opacity:1"
       d="m 888.772,875.43966 c -0.24755,-0.24146 -13.41341,-1.62728 -18.15491,-1.91096 l -4.43466,-0.26532 7.37126,-5.08929 c 4.05419,-2.79911 7.50586,-5.08929 7.67036,-5.08929 0.16451,0 1.01269,1.08197 1.88484,2.40438 0.87215,1.3224 2.82788,4.1349 4.34606,6.25 2.10707,2.93551 2.60716,3.84562 2.1131,3.84562 -0.35598,0 -0.7142,-0.0653 -0.79605,-0.14514 z"
       id="path5360"
       inkscape:connector-curvature="0"
       transform="scale(0.26458333)" />
    <path
       style="display:inline;opacity:0.88899997;fill:#636363;fill-opacity:0.38431373;stroke:none;stroke-width:2.02348661;stroke-linejoin:round;stroke-miterlimit:4;stroke-dasharray:none;stroke-opacity:1"
       d="m 1154.3712,868.91651 c 18.1971,-32.30062 32.1066,-51.86357 34.8939,-49.07629 0.5218,0.52184 1.5566,9.59646 2.2996,20.16583 l 1.3508,19.21703 -15.9287,4.08625 c -8.7608,2.24744 -17.6688,4.84664 -19.7957,5.776 -2.2827,0.99749 -3.438,0.92833 -2.8199,-0.16882 z"
       id="path5358"
       inkscape:connector-curvature="0"
       transform="scale(0.26458333)" />
    <path
       style="display:inline;fill:#c1ad7a;fill-opacity:1;stroke:none;stroke-width:0.35770527;stroke-linejoin:round;stroke-miterlimit:4;stroke-dasharray:none;stroke-opacity:1"
       d="m 1188.6908,815.3522 c 3.4773,-3.71661 6.1141,-7.51483 7.1628,-10.31766 1.4845,-3.96772 1.6432,-6.29768 1.6181,-23.76107 -0.03,-20.59608 -0.2042,-21.91045 -3.4924,-26.28128 -1.9959,-2.65297 -12.2677,-12.87708 -15.948,-15.87391 -2.7852,-2.26797 -5.117,-3.68019 -5.4789,-3.31826 -0.2697,0.26962 0.3617,1.49676 1.3,2.52702 1.2375,1.35866 0.3286,0.8966 -2.1795,-1.10794 -17.1706,-13.72353 -48.9179,-25.22466 -86.8559,-31.46542 -18.5184,-3.04625 -35.0963,-4.56607 -56.7399,-5.20174 -6.9984,-0.20555 -13.1262,-0.41383 -13.6173,-0.46286 -0.491,-0.049 3.5268,-0.24141 8.9286,-0.42752 6.5567,-0.2259 9.0498,-0.40926 7.5,-0.55159 -6.0026,-0.55131 12.1656,-0.0648 28.2143,0.75545 41.0966,2.10056 79.0146,13.091 108.8307,31.54425 14.7996,9.15952 27.3062,21.53002 29.7429,29.4192 0.7268,2.35316 0.7377,2.81563 0.5011,21.33566 l -0.2418,18.93037 -0.9976,2.76503 c -1.6018,4.43969 -4.0624,8.25691 -7.4138,11.50131 -4.0249,3.89648 -4.4828,3.89151 -0.8334,-0.009 z"
       id="path1187"
       inkscape:connector-curvature="0"
       transform="scale(0.26458333)" />
    <path
       style="display:inline;fill:url(#linearGradient5060);fill-opacity:1;stroke:none;stroke-width:1.43082106;stroke-linejoin:round;stroke-miterlimit:4;stroke-dasharray:none;stroke-opacity:1"
       d="m 1314.2156,877.33563 c -1.6208,-3.7812 -2.9469,-7.4421 -2.9469,-8.13533 0,-2.25889 -8.8888,-11.45056 -13.2583,-13.71013 -3.7727,-1.95094 -8.9624,-2.01583 -45.1451,-0.56448 -22.4853,0.90192 -44.3754,2.24815 -48.6447,2.9916 -4.2693,0.74345 -8.2872,1.35174 -8.9286,1.35174 -0.6414,0 -1.1662,-10.31133 -1.1662,-22.91406 0,-20.09485 0.3515,-23.6031 2.8572,-28.51451 2.4779,-4.85713 2.8571,-8.41967 2.8571,-26.84103 v -21.24056 l -4.4234,-6.67811 c -2.4329,-3.67295 -5.8767,-7.82126 -7.6529,-9.21845 -2.778,-2.18513 -3.4584,-4.73144 -4.8663,-18.20967 -0.9001,-8.61813 -1.6349,-18.03927 -1.6327,-20.93586 v -5.26654 l 13.2643,6.28336 c 22.8324,10.81581 46.9703,15.95122 91.0214,19.36508 46.7793,3.62528 114.257,-2.55284 141.7777,-12.98089 l 6.7777,-2.56819 -0.6722,3.074 c -0.3697,1.6907 -3.2975,17.85971 -6.5062,35.93114 -8.7128,49.07078 -11.2456,62.48765 -11.9246,63.16659 -0.3379,0.3379 -5.335,1.5886 -11.1048,2.77933 -35.2502,7.27473 -65.3159,29.61273 -82.0748,60.9793 l -4.6647,8.73057 z"
       id="path4974"
       inkscape:connector-curvature="0"
       transform="scale(0.26458333)" />
    <path
       style="display:inline;fill:url(#radialGradient7013);fill-opacity:1;stroke:none;stroke-width:1.43082106;stroke-linejoin:round;stroke-miterlimit:4;stroke-dasharray:none;stroke-opacity:1"
       d="m 1479.3752,1017.217 c -24.8517,-3.4017 -51.6681,-14.7321 -64.8549,-27.40256 -13.7874,-13.24752 -18.5656,-26.67491 -14.822,-41.65204 9.7629,-39.058 41.982,-66.50328 89.2154,-75.99646 14.4727,-2.9088 43.0777,-2.204 56.5334,1.39294 15.9416,4.26146 30.9279,12.74288 40.3912,22.85912 12.2429,13.08777 15.23,21.22936 15.2825,41.65434 0.04,15.75186 0.014,15.87581 -5.9775,27.96694 -9.7903,19.75779 -24.6999,33.0975 -46.8205,41.89072 -19.2685,7.6595 -50.3005,11.8394 -68.9476,9.287 z"
       id="path1165"
       inkscape:connector-curvature="0"
       transform="scale(0.26458333)" />
    <path
       style="display:inline;fill:url(#radialGradient7017);fill-opacity:1;stroke:none;stroke-width:1.43082106;stroke-linejoin:round;stroke-miterlimit:4;stroke-dasharray:none;stroke-opacity:1"
       d="m 1604.1374,943.88481 c 2.5677,-28.33603 -11.4976,-52.23218 -38.254,-64.99121 -11.5958,-5.52953 -27.1411,-10.19519 -34.099,-10.23419 -1.9141,-0.0107 -4.9266,-0.40713 -6.6944,-0.8809 -4.1597,-1.11476 -4.272,-7.00682 -0.3505,-18.40465 12.665,-36.81152 51.6642,-58.02378 89.0728,-48.44808 23.6828,6.06223 41.612,19.35371 50.5503,37.47459 5.3651,10.87696 5.3701,10.90434 5.2856,28.79722 -0.093,19.70929 -3.0128,33.39957 -10.3187,48.38416 -8.4875,17.40824 -27.1537,31.82278 -47.2931,36.521 l -8.8304,2.05998 z"
       id="path1167"
       inkscape:connector-curvature="0"
       transform="scale(0.26458333)" />
    <path
       style="display:inline;fill:url(#radialGradient7015);fill-opacity:1;stroke:none;stroke-width:1.43082106;stroke-linejoin:round;stroke-miterlimit:4;stroke-dasharray:none;stroke-opacity:1"
       d="m 1371.8757,950.82485 c -5.1072,-1.02922 -12.3837,-3.09761 -16.1701,-4.59641 l -6.8844,-2.72509 -14.7928,-28.61783 -14.7929,-28.61782 3.9315,-7.79431 c 5.8393,-11.57648 10.5838,-18.08723 20.4255,-28.02927 25.3419,-25.60033 55.2458,-37.311 91.0568,-35.65872 17.5662,0.81049 26.8045,3.2326 40.2581,10.55497 12.5164,6.8123 26.4223,24.42101 30.4968,38.61755 0.7906,2.75455 0.2396,3.23631 -4.5285,3.95933 -15.1744,2.30103 -29.3294,5.71016 -38.6218,9.30177 -31.342,12.1141 -56.0277,37.85978 -64.0836,66.83517 l -2.4773,8.91044 -7.2658,-0.13423 c -3.9962,-0.0738 -11.4444,-0.97633 -16.5515,-2.00555 z"
       id="path1169"
       inkscape:connector-curvature="0"
       transform="scale(0.26458333)" />
    <path
       style="display:inline;fill:url(#radialGradient7025);fill-opacity:1;stroke:none;stroke-width:1.43082106;stroke-linejoin:round;stroke-miterlimit:4;stroke-dasharray:none;stroke-opacity:1"
       d="m 1508.1383,864.75035 c -10.6791,-33.77049 -36.9942,-51.92338 -75.8776,-52.34248 -12.246,-0.13199 -14.5215,-0.50486 -14.0383,-2.30038 0.3171,-1.17857 2.3012,-12.10714 4.409,-24.28571 4.4535,-25.7319 4.2933,-25.4972 22.8157,-33.43443 12.9789,-5.56173 29.8789,-9.43444 41.0112,-9.39791 23.5489,0.0773 59.1855,14.69249 81.1317,33.27353 4.9604,4.19981 17.1428,18.12088 17.1428,19.58941 0,0.42083 -4.3986,1.89825 -9.7746,3.28316 -27.0891,6.9783 -49.5476,30.98402 -54.7769,58.55056 -1.8028,9.50357 -1.8443,9.56425 -6.5334,9.56425 -3.2408,0 -4.9667,-0.78314 -5.5096,-2.5 z"
       id="path1171"
       inkscape:connector-curvature="0"
       transform="scale(0.26458333)" />
    <path
       style="display:inline;fill:#c5a14d;fill-opacity:1;stroke:none;stroke-width:1.43082106;stroke-linejoin:round;stroke-miterlimit:4;stroke-dasharray:none;stroke-opacity:1"
       d="m 1542.9737,757.36333 c -27.3274,-14.93268 -55.1742,-19.7813 -79.0024,-13.75568 -6.4438,1.62952 -17.1805,5.52347 -23.8592,8.65322 -6.6787,3.12976 -12.1431,5.22553 -12.1431,4.65726 0,-2.66674 8.6291,-47.8868 9.258,-48.51569 0.3935,-0.39352 2.9267,-2.06073 5.6292,-3.70491 2.7025,-1.64418 10.6761,-9.18213 17.7191,-16.751 10.6365,-11.43084 13.0455,-14.88742 14.2231,-20.40897 1.4735,-6.90905 0.6273,-13.47587 -2.4865,-19.29396 -1.5839,-2.95955 -1.5249,-3.28476 0.4578,-2.52393 8.9876,3.44888 71.6633,19.55993 76.0935,19.56016 l 5.5343,3e-4 0.036,26.07113 c 0.02,14.33913 0.5378,36.51756 1.1508,49.28542 0.6129,12.76786 0.5966,23.15911 -0.036,23.09168 -0.6329,-0.0674 -6.2915,-2.93169 -12.5747,-6.36503 z"
       id="path1211"
       inkscape:connector-curvature="0"
       transform="scale(0.26458333)" />
    <path
       style="display:inline;fill:#f5db91;fill-opacity:1;stroke:none;stroke-width:1.43082106;stroke-linejoin:round;stroke-miterlimit:4;stroke-dasharray:none;stroke-opacity:1"
       d="m 1504.5967,652.35529 -35.515,-9.8172 -7.3421,-6.91306 c -16.3417,-15.38686 -40.3702,-25.05354 -85.7921,-34.51422 l -18.4501,-3.84286 16.7798,-6.10852 16.7797,-6.10852 5.4429,3.77192 c 2.9936,2.07455 28.8166,13.05356 57.3846,24.39778 55.9888,22.23293 93.7973,39.94168 97.5702,45.69996 l 2.2945,3.50182 -6.8186,-0.12495 c -3.7503,-0.0687 -22.8005,-4.5427 -42.3338,-9.94215 z"
       id="path1213"
       inkscape:connector-curvature="0"
       transform="scale(0.26458333)" />
    <path
       style="display:inline;fill:#e7e9df;fill-opacity:1;stroke:none;stroke-width:0.50587165;stroke-linejoin:round;stroke-miterlimit:4;stroke-dasharray:none;stroke-opacity:1"
       d="m 1297.8827,717.60844 c -66.1137,-2.16404 -122.6617,-21.68723 -143.773,-49.63769 -6.0758,-8.04398 -8.6553,-15.89765 -7.5711,-23.05123 0.9375,-6.186 3.8128,-11.38535 9.3715,-16.94579 5.1316,-5.13332 9.5702,-8.21625 17.4424,-12.11507 20.3869,-10.09682 45.9894,-15.74404 89.4274,-19.72531 11.7871,-1.08033 51.5553,-1.57366 61.3668,-0.76125 13.0093,1.07718 37.3235,4.80071 54.9659,8.41759 50.6197,10.37761 81.6812,26.16657 92.073,46.80186 2.48,4.92457 2.9476,7.65521 2.2617,13.20643 -1.3952,11.29222 -7.2481,17.68121 -27.3819,29.88979 -21.7556,13.19199 -45.7082,19.20464 -90.3514,22.68026 -8.8717,0.6907 -40.0457,1.87939 -44.4467,1.6948 -0.9723,-0.0408 -6.9953,-0.24525 -13.3846,-0.45439 z m 54.2957,-10.59946 c 0.4167,-0.0357 3.3714,-0.2742 6.566,-0.53002 5.4097,-0.43322 7.7505,-0.65289 12.8795,-1.20868 1.1112,-0.12041 3.384,-0.35452 5.0507,-0.52023 16.0154,-1.59233 39.5569,-6.89668 49.7501,-11.20962 0.9722,-0.41139 2.2223,-0.93873 2.7779,-1.17187 6.0096,-2.52185 8.8679,-3.83603 10.354,-4.76058 0.9723,-0.60488 2.1087,-1.25614 2.5254,-1.44726 0.4167,-0.19111 1.3464,-0.74271 2.066,-1.22579 0.7197,-0.48308 2.3018,-1.53651 3.516,-2.34096 3.5509,-2.35273 8.4011,-7.76863 10.4204,-11.63587 1.7552,-3.36145 1.8654,-3.84804 1.8957,-8.36723 0.028,-4.25466 -0.1289,-5.13658 -1.3894,-7.78504 -4.5936,-9.65161 -13.3934,-17.3335 -28.6305,-24.99344 -3.7502,-1.88528 -8.4095,-4.06225 -10.3541,-4.83772 -1.9445,-0.77547 -4.4764,-1.82346 -5.6263,-2.32885 -1.15,-0.5054 -2.741,-1.07451 -3.5356,-1.2647 -0.7946,-0.19018 -1.672,-0.51131 -1.9497,-0.71361 -0.2778,-0.20231 -3.1189,-1.19626 -6.3135,-2.2088 -3.1946,-1.01254 -6.9108,-2.19682 -8.2581,-2.63174 -1.3474,-0.43492 -2.8247,-0.86679 -3.283,-0.9597 -0.4583,-0.0929 -1.4583,-0.41079 -2.2222,-0.70637 -0.764,-0.29558 -1.389,-0.42141 -1.389,-0.27962 0,0.1418 -0.4325,0.0263 -0.9612,-0.25659 -1.4247,-0.76248 -19.745,-5.26722 -29.5959,-7.27727 -20.2088,-4.12355 -33.4704,-5.71878 -51.2652,-6.16667 -19.4771,-0.49023 -45.5102,1.14283 -65.3286,4.09806 -2.8213,0.4207 -6.0952,0.88692 -7.2755,1.03605 -1.1802,0.14913 -5.3849,0.94435 -9.3439,1.76715 -3.9589,0.82281 -7.7662,1.61414 -8.4607,1.75852 -0.6945,0.14439 -2.5128,0.60171 -4.0406,1.01628 -1.5279,0.41458 -3.3461,0.86835 -4.0406,1.0084 -3.5314,0.71211 -17.1192,5.70873 -22.2234,8.17213 -8.1548,3.93574 -11.9774,6.52104 -16.7853,11.3524 -7.4013,7.43732 -9.9553,14.42553 -8.254,22.58478 1.3189,6.32565 5.2959,12.64881 11.8094,18.77625 5.9467,5.59417 15.3364,11.7783 23.3315,15.36613 1.5278,0.68565 3.1706,1.46958 3.6505,1.74208 2.0766,1.17904 12.6736,5.22213 19.1697,7.31388 3.8811,1.24973 9.6429,2.72133 12.8038,3.27022 3.161,0.5489 6.2688,1.1184 6.9062,1.26558 1.5679,0.36204 18.9768,2.63677 23.3822,3.05524 1.9445,0.18471 4.331,0.42142 5.3033,0.52602 0.9723,0.1046 3.2451,0.32606 5.0508,0.49213 1.8056,0.16607 4.1921,0.39551 5.3033,0.50987 2.5614,0.26363 22.1587,1.68887 26.5165,1.92845 2.8407,0.15618 47.4288,-0.0342 49.4974,-0.21139 z"
       id="path4984"
       inkscape:connector-curvature="0"
       transform="scale(0.26458333)" />
    <path
       style="display:inline;fill:#e0d4c4;fill-opacity:1;stroke:none;stroke-width:0.50587165;stroke-linejoin:round;stroke-miterlimit:4;stroke-dasharray:none;stroke-opacity:1"
       d="m 1435.2826,678.24824 -5.3565,-6.566 h -2.3828 c -1.3106,0 -5.5642,-0.90913 -9.4524,-2.0203 -3.8882,-1.11117 -7.1208,-2.02031 -7.1835,-2.02031 -0.3106,0 -6.2241,-9.16937 -7.3621,-11.41563 -1.0825,-2.13677 -1.7202,-2.75353 -3.734,-3.61177 -3.2223,-1.37325 -8.2268,-2.80265 -15.308,-4.37232 -6.6237,-1.46825 -17.0022,-4.87037 -23.0628,-7.56008 -2.2673,-1.00625 -4.5417,-1.82954 -5.0543,-1.82954 -0.5125,0 -2.9758,0.56538 -5.474,1.25641 -3.5483,0.98151 -5.7497,1.25779 -10.0613,1.26269 l -5.5191,0.006 -5.7752,3.60503 -5.7751,3.60503 -5.8783,-3.05582 c -3.2331,-1.68071 -9.1739,-4.40841 -13.2019,-6.06156 -4.028,-1.65316 -10.0318,-4.49566 -13.3418,-6.31668 l -6.0182,-3.31094 -3.9182,2.98268 c -4.6261,3.52154 -4.0962,3.28131 -14.35,6.50499 -7.8764,2.47625 -8.1797,2.62399 -11.9666,5.82949 -4.4556,3.77153 -4.4462,3.7698 -14.0448,2.58672 -4.8104,-0.5929 -5.6756,-0.86962 -9.308,-2.97701 l -4.0047,-2.32334 -2.9978,2.77546 c -2.3968,2.21902 -5.29,3.92905 -14.4306,8.52928 -9.9122,4.98853 -11.9702,6.23283 -15.4734,9.35542 l -4.0406,3.60162 -2.1622,6.40144 c -1.1892,3.5208 -2.0628,6.79919 -1.9413,7.28533 0.1214,0.48614 0.1166,0.88388 -0.011,0.88388 -0.73,0 -9.1688,-6.00842 -12.5753,-8.9536 -10.1098,-8.74056 -15.0243,-18.61429 -13.4578,-27.03807 3.9208,-21.08302 39.3762,-36.28679 96.8175,-41.51668 4.7225,-0.42996 11.2001,-1.03685 14.3947,-1.34863 14.6349,-1.42832 37.6241,-1.30352 52.2754,0.28379 30.3349,3.28645 70.5376,13.25598 94.4493,23.42168 20.218,8.5954 33.2051,18.0649 37.9543,27.67421 1.8264,3.69549 1.9467,4.22202 1.9467,8.52137 0,4.1499 -0.1551,4.89747 -1.6425,7.91896 -1.0362,2.10486 -2.876,4.58205 -4.9839,6.71082 -3.2671,3.29946 -9.4364,7.86169 -10.6309,7.86169 -0.3304,0 -3.011,-2.9547 -5.9571,-6.56599 z"
       id="path4982"
       inkscape:connector-curvature="0"
       transform="scale(0.26458333)" />
    <path
       style="display:inline;fill:#e1d1ae;fill-opacity:1;stroke:none;stroke-width:0.50587165;stroke-linejoin:round;stroke-miterlimit:4;stroke-dasharray:none;stroke-opacity:1"
       d="m 1292.3455,717.60622 c -58.1854,-2.63431 -109.2673,-19.29165 -133.0322,-43.38056 -10.8802,-11.02856 -15.094,-21.85167 -12.4539,-31.98775 6.0335,-23.16398 43.5269,-39.28377 105.3139,-45.27832 19.3208,-1.87449 28.598,-2.28589 50.0026,-2.2174 20.3342,0.0651 21.323,0.11414 33.0825,1.64162 65.3314,8.48607 106.884,22.14735 126.7245,41.66327 4.6252,4.5496 7.5638,8.60919 10.1731,14.05373 1.5472,3.22854 1.745,4.10438 1.7384,7.69789 -0.022,11.94352 -4.6033,19.02405 -18.0178,27.8474 -17.0635,11.22341 -25.6385,15.41526 -40.0585,19.58243 -28.0356,8.10182 -79.0454,12.38912 -123.4726,10.37769 z m 55.7923,-10.57431 c 39.2192,-1.99538 68.8293,-8.09912 89.3943,-18.42748 10.5355,-5.29127 17.2628,-11.1115 20.5643,-17.7916 1.7946,-3.63123 1.9158,-4.16801 1.9158,-8.48638 0,-4.43287 -0.086,-4.78311 -2.2295,-9.11757 -8.055,-16.28578 -36.7043,-30.95754 -83.2447,-42.63096 -17.4046,-4.36549 -35.0778,-7.59545 -51.654,-9.44034 -5.8585,-0.65203 -12.2774,-0.87789 -25.5063,-0.89747 -17.7141,-0.0262 -21.2157,0.17518 -44.1942,2.54175 -29.4042,3.02836 -53.1704,8.7213 -69.448,16.63545 -7.6186,3.7042 -11.4062,6.29211 -16.2774,11.12173 -4.7788,4.73806 -7.4745,9.6137 -8.2161,14.86018 -2.8291,20.01506 22.5482,40.66543 64.6471,52.60558 11.2377,3.18727 50.2062,7.68263 77.7817,8.9728 12.9052,0.60381 35.1556,0.62981 46.467,0.0543 z"
       id="path4980"
       inkscape:connector-curvature="0"
       transform="scale(0.26458333)" />
    <path
       style="display:inline;fill:#f9f4e1;fill-opacity:1;stroke:none;stroke-width:1.43082106;stroke-linejoin:round;stroke-miterlimit:4;stroke-dasharray:none;stroke-opacity:1"
       d="m 1279.3975,703.71702 c -38.4289,-3.31188 -57.3461,-7.0881 -77.1428,-15.3992 -15.3399,-6.44001 -14.7111,-5.75908 -12.1144,-13.11904 3.1335,-8.88127 8.3382,-13.77546 20.6754,-19.44206 5.8872,-2.70402 12.0944,-6.22265 13.7938,-7.81919 2.6811,-2.5187 3.533,-2.66097 6.439,-1.07524 1.842,1.00515 7.1544,2.28871 11.8054,2.85235 7.8724,0.95405 8.8095,0.74752 13.5714,-2.991 2.8133,-2.20869 8.7102,-5.03282 13.1043,-6.27584 4.394,-1.24303 9.6272,-3.54854 11.6292,-5.12336 l 3.6402,-2.86332 12.6564,5.71242 c 6.961,3.14183 15.7051,7.30877 19.4312,9.25985 l 6.7749,3.54743 6.7966,-4.10114 c 9.3314,-5.63068 24.6741,-6.98005 33.7444,-2.9678 3.4227,1.51399 10.331,3.77531 15.3519,5.02514 5.0209,1.24984 11.5684,2.8993 14.55,3.66548 4.3385,1.11485 6.393,2.91232 10.2875,9.00041 4.6343,7.24464 5.3295,7.72666 14.5789,10.1094 7.6892,1.98083 10.6752,3.58015 14.3341,7.67749 2.5418,2.8465 4.6311,5.5698 4.6428,6.05179 0.047,1.92193 -17.4485,8.54288 -31.5115,11.92544 -23.3793,5.62335 -48.1901,7.937 -82.7442,7.71605 -16.8977,-0.10805 -36.8302,-0.72278 -44.2945,-1.36606 z"
       id="path1215"
       inkscape:connector-curvature="0"
       transform="scale(0.26458333)" />
    <path
       style="display:inline;fill:#e1d1ae;fill-opacity:1;stroke:none;stroke-width:0.50587165;stroke-linejoin:round;stroke-miterlimit:4;stroke-dasharray:none;stroke-opacity:1"
       d="m 1302.1532,724.35761 c -32.7148,-2.26424 -44.3322,-3.4057 -58.5381,-5.75162 -19.9486,-3.29425 -37.2758,-8.68504 -52.7436,-16.40942 -12.6579,-6.32115 -19.0492,-10.88131 -24.5449,-17.51268 -3.3807,-4.07918 -3.8707,-5.20537 -1.4052,-3.22901 4.073,3.26482 13.2964,9.13616 19.0666,12.13718 36.6472,19.05965 87.5965,27.84546 148.4925,25.60633 25.578,-0.94049 42.4778,-2.45439 60.3566,-5.40681 24.2816,-4.00974 40.2093,-9.68973 56.6527,-20.20298 3.2032,-2.04798 5.9219,-3.72361 6.0415,-3.72361 0.6763,0 -8.2062,9.49268 -10.2507,10.9549 -19.5892,14.01027 -60.0429,21.81255 -123.4294,23.80572 -6.9331,0.21802 -14.0809,0.12077 -19.698,-0.268 z"
       id="path4978"
       inkscape:connector-curvature="0"
       transform="scale(0.26458333)" />
    <path
       style="display:inline;fill:url(#linearGradient5068);fill-opacity:1;stroke:none;stroke-width:1.43082106;stroke-linejoin:round;stroke-miterlimit:4;stroke-dasharray:none;stroke-opacity:1"
       d="m 1654.3975,820.60587 c -13.7978,-14.37434 -36.4821,-23.89776 -56.9233,-23.89776 h -9.368 l -4.3248,-6.2859 c -2.3786,-3.45725 -8.9177,-10.47779 -14.5313,-15.60121 l -10.2066,-9.31532 -1.1868,-26.89878 c -0.6527,-14.79434 -1.2159,-32.14053 -1.2515,-38.5471 l -0.065,-11.64831 7.5,4.01923 c 40.4859,21.69628 98.6612,22.58823 138.2432,2.11956 l 4.7032,-2.43209 -1.0154,47.79233 -1.0154,47.79233 3.6783,8.31722 3.6782,8.31721 -3.5441,5.35555 c -7.1433,10.79418 -21.1932,18.07568 -37.0787,19.21638 l -8.7207,0.62622 z"
       id="path4928"
       inkscape:connector-curvature="0"
       transform="scale(0.26458333)" />
    <path
       style="display:inline;fill:url(#linearGradient5076);fill-opacity:1;stroke:none;stroke-width:1.43082106;stroke-linejoin:round;stroke-miterlimit:4;stroke-dasharray:none;stroke-opacity:1"
       d="m 1623.0626,707.04146 c -0.2086,-0.20951 -3.5293,-0.75543 -7.3793,-1.21315 -9.3751,-1.11459 -10.8615,-1.3998 -13.7804,-2.64407 -1.3721,-0.58489 -4.1038,-1.15629 -6.0704,-1.26978 -1.9667,-0.11349 -3.5763,-0.60814 -3.5768,-1.09921 -9e-4,-0.8013 -7.083,-2.96367 -10.7153,-3.27171 -0.7857,-0.0666 -2.2781,-0.92472 -3.3163,-1.90686 -1.7032,-1.61115 -4.8725,-2.41004 -7.7551,-1.95489 -0.5893,0.0931 -1.0715,-0.51162 -1.0715,-1.34371 0,-0.83208 -0.6428,-1.11557 -1.4285,-0.62997 -0.7857,0.4856 -1.4286,0.16417 -1.4286,-0.71429 0,-0.87845 -0.6429,-1.19988 -1.4286,-0.71428 -0.7857,0.4856 -1.4285,0.24543 -1.4285,-0.53371 0,-0.77914 -1.1921,-1.79496 -2.6491,-2.25739 -2.2594,-0.71709 -2.7709,-2.88297 -3.4773,-14.72286 -0.7482,-12.54093 -0.5311,-14.36669 2.2466,-18.89834 1.6911,-2.75895 3.6241,-5.65913 4.2956,-6.44485 3.5898,-4.20058 16.5359,-25.58213 16.0073,-26.43742 -0.9526,-1.54129 5.9158,-4.21733 7.3302,-2.85595 1.3742,1.32276 1.3315,1.31444 29.1038,5.67408 7.3827,1.15892 27.7822,0.86676 35.7143,-0.5115 1.9643,-0.34131 6.7646,-1.0463 10.6674,-1.56664 3.9028,-0.52034 7.5968,-1.25559 8.2089,-1.63388 0.6121,-0.3783 2.2404,-0.91183 3.6183,-1.18563 1.378,-0.2738 3.1482,-0.63491 3.934,-0.80247 4.5876,-0.97833 7.3264,0.41669 9.1811,4.67656 1.1118,2.55357 3.5188,6.6321 5.3488,9.06341 1.8299,2.43131 3.3272,5.16345 3.3272,6.07143 0,0.90798 0.6429,1.65087 1.4286,1.65087 0.7857,0 1.4285,0.87042 1.4285,1.93425 0,1.06384 1.5765,3.63527 3.5033,5.71429 1.9267,2.07902 3.2069,3.78003 2.8449,3.78003 -0.3621,0 1.3155,3.49744 3.728,7.77209 5.6871,10.07691 5.9062,17.38072 0.755,25.16467 -2.0988,3.17154 -6.1612,6.82544 -9.0974,8.18256 -2.9179,1.34866 -5.6266,2.77354 -6.0195,3.1664 -0.3928,0.39285 -2,0.93925 -3.5714,1.21421 -1.5714,0.27496 -3.1786,0.91782 -3.5714,1.42857 -0.3929,0.51076 -1.3572,0.96214 -2.1429,1.00307 -4.1417,0.21577 -12.1428,2.53664 -12.1428,3.52225 0,0.62471 -1.2858,0.79962 -2.8572,0.38868 -1.5714,-0.41094 -2.8571,-0.0495 -2.8571,0.80319 0,0.8527 -0.9643,1.18033 -2.1429,0.72806 -1.1786,-0.45226 -3.2678,-0.3596 -4.6428,0.20591 -3.535,1.45385 -36.9747,3.61878 -38.1207,2.46798 z"
       id="path4934"
       inkscape:connector-curvature="0"
       transform="scale(0.26458333)" />
    <path
       style="display:inline;fill:#e9e5e4;fill-opacity:1;stroke:none;stroke-width:1.43082106;stroke-linejoin:round;stroke-miterlimit:4;stroke-dasharray:none;stroke-opacity:1"
       d="m 1669.4946,843.83991 c -1.8746,-5.50608 -3.1309,-10.28845 -2.7919,-10.62748 0.3391,-0.33904 5.2792,-1.58863 10.978,-2.77688 12.1586,-2.53513 23.1097,-8.1111 28.9144,-14.7223 2.2791,-2.59569 4.5529,-4.71943 5.0529,-4.71943 0.5001,0 0.6762,5.13078 0.3914,11.40172 -0.4924,10.84303 -0.7538,11.61735 -5.3356,15.80217 -2.6499,2.42025 -6.229,5.32502 -7.9536,6.45505 -2.7886,1.82714 -22.817,9.19821 -24.9931,9.19821 -0.4699,0 -2.388,-4.50498 -4.2625,-10.01106 z"
       id="path4938"
       inkscape:connector-curvature="0"
       transform="scale(0.26458333)" />
    <path
       style="display:inline;fill:url(#linearGradient7041);fill-opacity:1;stroke:none;stroke-width:1.43082106;stroke-linejoin:round;stroke-miterlimit:4;stroke-dasharray:none;stroke-opacity:1"
       d="m 1607.1827,620.33487 c -17.6456,-3.20548 -25.8345,-6.16522 -29.6704,-10.724 -4.6087,-5.47708 -6.3638,-15.01946 -3.3749,-18.34915 1.1902,-1.32591 2.3785,-4.31198 2.6406,-6.6357 0.6055,-5.36638 9.8019,-12.62262 20.1826,-15.92451 8.4826,-2.69817 50.893,-4.43433 59.992,-2.45591 3.5495,0.77177 -3.5798,1.17913 -20.7143,1.18358 -36.0962,0.009 -51.8408,4.37558 -51.8408,14.3762 0,9.82701 21.6279,16.30241 54.2858,16.25316 14.0968,-0.0213 32.0431,-2.48576 39.5858,-5.43621 4.8732,-1.90624 9.6999,-6.66025 9.6999,-9.55386 0,-1.21609 -1.701,-3.78752 -3.7801,-5.71429 -2.079,-1.92677 -2.979,-3.50321 -2,-3.50321 0.9791,0 3.8758,2.09573 6.4372,4.65717 4.1986,4.19857 4.762,5.77578 5.7217,16.01638 l 1.0644,11.3592 -4.2858,3.82936 c -3.0024,2.68265 -8.0738,4.71819 -16.9359,6.79759 -26.2392,6.15681 -47.4907,7.36965 -67.0078,3.8242 z"
       id="path4940"
       inkscape:connector-curvature="0"
       transform="scale(0.26458333)" />
    <path
       style="display:inline;fill:url(#linearGradient7033);fill-opacity:1;stroke:none;stroke-width:1.43082106;stroke-linejoin:round;stroke-miterlimit:4;stroke-dasharray:none;stroke-opacity:1"
       d="m 1618.701,706.60426 c -15.5009,-1.69752 -34.6861,-7.38171 -49.3035,-14.60771 l -12.1428,-6.00273 v -11.42857 c 0,-6.28571 -0.5246,-12.23943 -1.1658,-13.23047 -0.7587,-1.17279 1.8875,-5.85386 7.5794,-13.40751 4.8098,-6.38308 10.9952,-16.07369 13.7453,-21.53469 3.9426,-7.82908 5.5121,-9.73181 7.4206,-8.99628 5.6086,2.1615 20.453,5.11956 32.7471,6.52558 15.0985,1.72674 35.084,0.0996 54.4461,-4.43266 12.1545,-2.84514 14.513,-2.71344 14.513,0.81041 0,1.09688 5.1711,9.73038 11.4913,19.18557 18.5741,27.78713 20.077,33.01678 12.764,44.41323 -3.994,6.22404 -5.4071,7.1572 -18.9286,12.49992 -23.3829,9.23923 -49.1598,12.83483 -73.1661,10.20591 z"
       id="path4930"
       inkscape:connector-curvature="0"
       transform="scale(0.26458333)" />
    <path
       style="display:inline;fill:url(#linearGradient5092);fill-opacity:1;stroke:none;stroke-width:1.43082106;stroke-linejoin:round;stroke-miterlimit:4;stroke-dasharray:none;stroke-opacity:1"
       d="m 1606.9814,593.12994 c -11.1518,-2.42393 -18.6629,-5.95658 -20.6806,-9.72661 -3.3249,-6.21264 9.2482,-11.33954 33.9776,-13.85503 24.6779,-2.51023 52.8038,1.66486 61.4778,9.12594 6.8041,5.85264 1.554,11.03563 -14.6576,14.47017 -12.4676,2.64137 -47.9377,2.63283 -60.1172,-0.0145 z"
       id="path4942"
       inkscape:connector-curvature="0"
       transform="scale(0.26458333)" />
    <path
       style="display:inline;fill:#e9e5e4;fill-opacity:1;stroke:none;stroke-width:1.43082106;stroke-linejoin:round;stroke-miterlimit:4;stroke-dasharray:none;stroke-opacity:1"
       d="m 1672.5156,851.35097 c -2.4259,-4.78219 -6.512,-17.4394 -5.8452,-18.1062 0.3691,-0.36909 2.9016,-1.05473 5.6277,-1.52363 15.3782,-2.6451 27.554,-8.32808 34.297,-16.00789 2.2791,-2.59569 4.5529,-4.71943 5.0529,-4.71943 0.5001,0 0.6804,4.98389 0.4008,11.07532 -0.4763,10.37623 -0.8016,11.34558 -5.1538,15.35714 -7.8759,7.25945 -10.2611,8.82233 -15.3546,10.0607 -0.7857,0.19103 -4.8274,1.70108 -8.9815,3.35566 -9.0851,3.61862 -8.481,3.58805 -10.0433,0.50833 z"
       id="path4936"
       inkscape:connector-curvature="0"
       transform="scale(0.26458333)" />
    <path
       style="display:inline;fill:url(#linearGradient5084);fill-opacity:1;stroke:none;stroke-width:1.43082106;stroke-linejoin:round;stroke-miterlimit:4;stroke-dasharray:none;stroke-opacity:1"
       d="m 1550.888,654.63988 c -3.6963,-4.45381 -56.6677,-28.70634 -92.2344,-42.22877 l -3.0975,-1.17766 2.598,-17.61981 c 1.4289,-9.6909 2.6146,-18.07234 2.635,-18.62541 0.02,-0.55308 5.3406,1.52967 11.8227,4.62835 20.0471,9.58316 38.5768,13.17139 77.6925,15.04501 l 20.1925,0.96722 0.7502,5.59313 c 0.4126,3.07622 2.4331,7.79961 4.4901,10.49642 l 3.7399,4.90329 -4.8782,9.68677 c -4.6712,9.27573 -15.8155,25.33126 -19.9841,28.79087 -1.5189,1.26064 -2.3881,1.15349 -3.7267,-0.45941 z"
       id="path4922"
       inkscape:connector-curvature="0"
       transform="scale(0.26458333)" />
    <path
       style="display:inline;fill:url(#linearGradient7049);fill-opacity:1;stroke:none;stroke-width:1.43082106;stroke-linejoin:round;stroke-miterlimit:4;stroke-dasharray:none;stroke-opacity:1"
       d="m 1525.0236,590.8192 c -18.047,-1.59925 -38.4383,-6.89579 -51.9913,-13.5045 -17.4852,-8.52619 -21.8528,-17.27046 -14.2338,-28.49763 2.934,-4.32357 3.4972,-6.44252 2.7585,-10.37977 -1.2328,-6.5714 1.385,-12.46662 7.1058,-16.00227 6.3815,-3.94395 9.1679,-3.71309 5.2695,0.43658 -5.8197,6.19477 -2.7209,13.29912 8.7271,20.00812 8.6374,5.06185 20.7469,7.87582 45.0087,10.45899 25.4523,2.70991 44.0993,1.83331 64.1192,-3.01426 18.8843,-4.57261 25.4418,-7.32463 29.8031,-12.50768 8.2372,-9.78935 -3.2501,-19.64961 -29.1005,-24.97889 -11.8825,-2.44969 -62.5084,-3.40377 -83.8066,-1.57941 l -11.4286,0.97895 9.2857,-2.0397 c 13.5546,-2.97741 52.0503,-4.18267 70.2398,-2.19913 18.8295,2.05332 29.3705,4.68241 40.5248,10.10743 12.2846,5.97479 15.2876,9.64932 16.0689,19.66252 0.4459,5.71564 1.6807,9.61278 4.047,12.77281 1.8729,2.50115 3.4052,6.09961 3.4052,7.99657 0,3.41049 -0.1985,3.45964 -17.7638,4.39867 -21.5686,1.15306 -33.5017,4.48369 -41.9388,11.70551 -3.3064,2.83018 -6.0117,6.1215 -6.0117,7.31404 0,1.19255 -1.1029,4.03531 -2.4508,6.31726 l -2.4509,4.14898 -15.7634,-0.19637 c -8.6699,-0.108 -21.9103,-0.74107 -29.4231,-1.40682 z"
       id="path4924"
       inkscape:connector-curvature="0"
       transform="scale(0.26458333)" />
    <path
       style="display:inline;fill:url(#linearGradient5100);fill-opacity:1;stroke:none;stroke-width:1.43082106;stroke-linejoin:round;stroke-miterlimit:4;stroke-dasharray:none;stroke-opacity:1"
       d="m 1523.6833,550.91026 c -20.4377,-2.20659 -31.996,-5.32572 -40.5084,-10.93159 -9.1594,-6.03195 -11.6582,-10.15263 -8.7095,-14.36256 11.2294,-16.0321 108.9484,-19.00359 137.7792,-4.18965 7.5898,3.89982 11.5224,9.68484 9.166,13.48361 -2.6383,4.25326 -12.67,8.9182 -27.3063,12.69804 -11.3114,2.92117 -18.2353,3.70933 -36.1353,4.11337 -12.1786,0.27489 -27.6072,-0.0902 -34.2857,-0.81122 z"
       id="path4926"
       inkscape:connector-curvature="0"
       transform="scale(0.26458333)" />
    <path
       style="display:inline;fill:#e9e5e4;fill-opacity:1;stroke:none;stroke-width:1.43082106;stroke-linejoin:round;stroke-miterlimit:4;stroke-dasharray:none;stroke-opacity:1"
       d="m 1671.4796,849.20811 c -0.5512,-2.55357 -2.2543,-7.11587 -3.7846,-10.13844 -1.5304,-3.02257 -2.5769,-5.67447 -2.3257,-5.89311 0.2513,-0.21865 4.9568,-1.14764 10.4568,-2.06444 13.068,-2.1783 23.2986,-7.23867 30.5593,-15.11562 l 5.8693,-6.36741 v 11.15856 c 0,10.98585 -0.083,11.24179 -5.3572,16.53663 -2.9464,2.95794 -7.8976,6.68007 -11.0027,8.27141 -5.5487,2.84373 -20.1812,8.25528 -22.3217,8.25528 -0.6003,0 -1.5424,-2.08929 -2.0935,-4.64286 z"
       id="path4932"
       inkscape:connector-curvature="0"
       transform="scale(0.26458333)" />
    <path
       style="display:inline;fill:#d7ce92;fill-opacity:1;stroke:none;stroke-width:0.25293583;stroke-linejoin:round;stroke-miterlimit:4;stroke-dasharray:none;stroke-opacity:1"
       d="m 950.04934,292.30822 c -12.36994,-0.65547 -25.1905,-3.29149 -39.75088,-8.17311 -2.69534,-0.90366 -4.98057,-1.77237 -5.07828,-1.93047 -0.27213,-0.44032 -0.81637,-3.04635 -0.66732,-3.19539 0.0724,-0.0724 2.04285,0.21682 4.37877,0.64273 19.75368,3.60166 37.48698,4.19005 53.93428,1.78954 6.25257,-0.91258 8.12764,-1.32803 8.22275,-1.82188 0.10915,-0.5668 -0.20455,-0.56093 -3.62669,0.0678 -8.13049,1.49378 -15.63242,2.1115 -25.49385,2.09919 -10.58657,-0.0132 -17.62151,-0.61723 -29.04188,-2.49354 -8.01193,-1.31633 -10.69544,-1.97935 -11.57625,-2.86016 -1.45657,-1.45656 -1.08244,-4.47781 0.75419,-6.09039 0.4885,-0.42891 1.20319,-0.84283 1.58821,-0.91984 0.6988,-0.13976 0.70031,-0.14465 0.86319,-2.80675 0.0897,-1.46671 0.16317,-3.30478 0.16317,-4.08459 v -1.41785 l 1.70463,-1.04147 c 3.25675,-1.98977 6.4521,-3.30117 10.66382,-4.37651 6.71287,-1.71395 19.76191,-2.88663 32.07826,-2.88277 17.893,0.006 34.42808,2.31227 44.0679,6.14754 l 1.76777,0.70331 0.16114,2.37149 c 0.0886,1.30431 0.17718,3.62154 0.19678,5.1494 l 0.0356,2.77792 2.38437,1.6415 c 2.62988,1.81048 2.88458,2.23776 2.40218,4.02937 -0.49926,1.85389 -1.19523,2.38038 -7.7055,5.82913 -8.67698,4.59653 -19.76747,6.45368 -41.41626,6.93531 -7.92621,0.17634 -8.77285,0.2583 -8.66094,0.83846 0.0927,0.48073 0.83357,0.48242 13.58544,0.031 17.92935,-0.63473 27.59803,-2.35467 36.03148,-6.40957 1.55249,-0.74646 2.88778,-1.29212 2.96732,-1.21259 0.0795,0.0795 0.14461,1.24206 0.14461,2.58339 v 2.43878 l -5.24017,1.09126 c -2.88209,0.6002 -7.05844,1.46968 -9.28077,1.93218 -10.5643,2.19858 -21.22714,3.11198 -30.55712,2.61759 z m 11.76161,-20.20713 c 16.85365,-0.94332 28.15728,-3.20134 31.07007,-6.20657 3.23945,-3.34227 -2.96762,-6.68797 -16.56771,-8.93026 -9.6058,-1.58374 -21.74348,-2.63448 -30.05204,-2.60157 -20.22265,0.0801 -37.30825,3.6108 -38.76001,8.00967 -1.24059,3.75903 6.24997,6.63801 21.96622,8.44267 11.5828,1.33003 23.26132,1.7944 32.34347,1.28606 z"
       id="path1199"
       inkscape:connector-curvature="0"
       transform="scale(0.26458333)" />
    <path
       style="display:inline;fill:#e7e9df;fill-opacity:1;stroke:none;stroke-width:1.43082106;stroke-linejoin:round;stroke-miterlimit:4;stroke-dasharray:none;stroke-opacity:1"
       d="m 932.73525,269.55198 c -11.67552,-1.22255 -22.6613,-3.92699 -23.86528,-5.87506 -1.42874,-2.31175 9.20606,-5.48693 23.2581,-6.94405 20.48343,-2.12403 56.64353,2.16193 59.67911,7.07359 1.11773,1.80854 -6.61198,4.12416 -19.23304,5.76173 -12.2131,1.58463 -24.5988,1.5796 -39.83889,-0.0162 z"
       id="path4986"
       inkscape:connector-curvature="0"
       transform="scale(0.26458333)" />
    <path
       style="display:inline;fill:#d7ce85;fill-opacity:1;stroke:none;stroke-width:0.25293583;stroke-linejoin:round;stroke-miterlimit:4;stroke-dasharray:none;stroke-opacity:1"
       d="m 952.32218,299.46404 c -14.90674,-0.44439 -31.30841,-3.03984 -46.05498,-7.28787 -3.67894,-1.05979 -5.85168,-2.77681 -5.83102,-4.60799 0.0185,-1.64282 0.71802,-2.55154 2.64841,-3.44065 l 1.72867,-0.7962 4.68783,1.60323 c 24.4038,8.346 44.93157,10.43588 66.16873,6.73646 2.00731,-0.34966 6.8371,-1.32747 10.73287,-2.1729 5.13399,-1.11414 7.77817,-1.567 9.60859,-1.64561 2.39702,-0.10294 2.58912,-0.0726 3.77934,0.59718 0.99648,0.56073 1.28858,0.87671 1.42268,1.53871 0.3492,1.72378 -0.6082,3.58452 -2.29783,4.46582 -0.90226,0.47062 -3.22885,1.00562 -8.71256,2.00348 -9.41616,1.71344 -16.61333,2.52954 -25.75889,2.92084 -5.51812,0.23609 -6.77346,0.24495 -12.12184,0.0855 z"
       id="path1197"
       inkscape:connector-curvature="0"
       transform="scale(0.26458333)" />
    <path
       style="display:inline;fill:#d7ce80;fill-opacity:1;stroke:none;stroke-width:0.25293583;stroke-linejoin:round;stroke-miterlimit:4;stroke-dasharray:none;stroke-opacity:1"
       d="m 948.53411,316.2786 c -12.74001,-0.79092 -27.13261,-3.39066 -42.0476,-7.59505 -3.99886,-1.12725 -4.82847,-1.6371 -5.88754,-3.61832 -0.81929,-1.53266 -0.74065,-4.11149 0.18003,-5.90341 1.36972,-2.66589 2.03888,-2.94281 4.9499,-2.04841 9.16024,2.81445 22.69642,5.80258 32.45115,7.16364 9.49875,1.32535 12.52071,1.52864 22.8547,1.53748 11.60604,0.01 15.61637,-0.33662 29.54696,-2.55326 5.18794,-0.8255 5.82487,-0.87823 7.32361,-0.6063 2.52658,0.45842 3.66868,1.05992 4.27718,2.25266 1.313,2.57368 0.3043,4.04107 -4.37989,6.37154 -2.52734,1.25741 -3.38065,1.55636 -4.94805,1.73352 -1.04172,0.11775 -4.50781,0.61712 -7.70242,1.10973 -14.25677,2.19836 -25.38433,2.85359 -36.61803,2.15618 z"
       id="path1193"
       inkscape:connector-curvature="0"
       transform="scale(0.26458333)" />
    <path
       style="display:inline;fill:#d7ce87;fill-opacity:1;stroke:none;stroke-width:0.25293583;stroke-linejoin:round;stroke-miterlimit:4;stroke-dasharray:none;stroke-opacity:1"
       d="m 951.05949,304.65621 c -13.18292,-0.9175 -28.88899,-3.85127 -44.19417,-8.25513 l -2.52538,-0.72664 -0.0745,-1.52883 -0.0745,-1.52883 2.09482,0.61369 c 8.99956,2.63649 21.12552,5.03947 30.97768,6.13881 7.77367,0.86741 12.31602,1.10744 20.74087,1.09602 11.61976,-0.0158 20.30797,-0.82513 32.21093,-3.00071 2.72297,-0.49769 4.98865,-0.86625 5.03484,-0.81901 0.0462,0.0472 0.16535,1.13135 0.26478,2.40913 0.17931,2.30417 0.17586,2.32434 -0.419,2.45687 -3.91137,0.87144 -18.10825,2.72187 -24.25943,3.16199 -4.24847,0.30398 -15.29919,0.29428 -19.77692,-0.0174 z"
       id="path1195"
       inkscape:connector-curvature="0"
       transform="scale(0.26458333)" />
    <path
       style="display:inline;fill:#e0dcbb;fill-opacity:1;stroke:none;stroke-width:0.35770527;stroke-linejoin:round;stroke-miterlimit:4;stroke-dasharray:none;stroke-opacity:1"
       d="m 1181.2661,176.69896 c -11.553,-0.87055 -24.9031,-3.22528 -37.3214,-6.58282 -6.4258,-1.73736 -17.7427,-5.25895 -18.1433,-5.64581 -0.288,-0.27821 -1.3694,-4.02466 -1.2082,-4.18588 0.048,-0.0476 2.3318,0.30735 5.0761,0.78868 6.6613,1.16834 16.5924,2.5351 23.3826,3.21802 7.6637,0.77078 27.5293,1.07283 35.1785,0.53488 10.9489,-0.77 24.0373,-2.64063 24.36,-3.4816 0.1059,-0.276 0.1022,-0.59216 -0.01,-0.70258 -0.1104,-0.11042 -2.1794,0.13026 -4.5977,0.53485 -11.7758,1.97011 -20.4167,2.65983 -33.3255,2.66006 -10.8255,2e-4 -17.3343,-0.3671 -27.5,-1.55186 -9.4305,-1.09908 -22.2692,-3.20756 -24.2195,-3.97752 -1.225,-0.48364 -2.7476,-2.62891 -2.7369,-3.85615 0.014,-1.60242 1.3124,-3.89512 2.6543,-4.68688 l 1.2664,-0.74719 v -4.42554 -4.42554 l 1.6964,-1.24683 c 10.5588,-7.76048 36.4647,-11.40565 69.8743,-9.83188 21.7328,1.02373 36.2896,3.96649 46.465,9.39323 l 2.1429,1.14283 0.098,6.16071 0.098,6.16071 1.3309,0.001 c 1.8314,0.002 3.5485,1.12187 3.9466,2.57434 0.7104,2.59177 -2.3201,5.58076 -9.012,8.88854 -8.4354,4.16963 -19.6661,6.69844 -34.6752,7.80783 -4.992,0.36897 -23.7597,1.0779 -28.6607,1.08261 -2.3725,0.002 -2.5893,0.0639 -2.5893,0.73554 0,0.72226 0.1063,0.72986 7.2321,0.51729 11.4019,-0.34014 22.9389,-0.87735 27.4107,-1.27635 13.0038,-1.16028 23.1898,-3.56508 31.6432,-7.47056 l 2.9416,-1.35903 0.2474,2.96906 c 0.2681,3.21881 0.1373,3.74369 -0.9326,3.74369 -0.3856,0 -5.9609,1.03455 -12.3896,2.299 -12.1456,2.38891 -19.389,3.507 -26.6885,4.11965 -3.9217,0.32914 -19.2087,0.40955 -23.0358,0.12117 z m 24.6429,-25.14089 c 26.8074,-1.86995 39.9478,-6.11432 35.6896,-11.5278 -1.6197,-2.05911 -8.9679,-4.63825 -17.8798,-6.27558 -11.7811,-2.1645 -31.5409,-3.94257 -43.8873,-3.94916 -22.8112,-0.0122 -44.8654,3.69777 -49.8331,8.38292 -1.0112,0.95365 -1.2323,1.42195 -1.2323,2.61003 0,1.25432 0.1968,1.61623 1.4716,2.70747 6.9361,5.93704 46.1592,10.11074 75.6713,8.05212 z"
       id="path1209"
       inkscape:connector-curvature="0"
       transform="scale(0.26458333)" />
    <path
       style="display:inline;fill:#e7e9df;fill-opacity:1;stroke:none;stroke-width:1.43082106;stroke-linejoin:round;stroke-miterlimit:4;stroke-dasharray:none;stroke-opacity:1"
       d="m 1169.7239,149.37852 c -18.723,-1.16839 -37.2685,-4.99944 -38.2035,-7.8919 -0.6563,-2.0302 5.5325,-5.36368 12.4892,-6.72711 27.683,-5.4255 79.1412,-2.43201 94.0144,5.46912 l 3.8427,2.04139 -5,2.11474 c -10.7169,4.5327 -39.8314,6.6981 -67.1428,4.99376 z"
       id="path4988"
       inkscape:connector-curvature="0"
       transform="scale(0.26458333)" />
    <path
       style="display:inline;fill:#e0dcbc;fill-opacity:1;stroke:none;stroke-width:0.35770527;stroke-linejoin:round;stroke-miterlimit:4;stroke-dasharray:none;stroke-opacity:1"
       d="m 1181.2845,185.48651 c -18.0343,-0.97833 -40.9017,-4.83041 -57.2251,-9.63971 -3.2606,-0.96067 -4.2218,-2.10102 -4.2218,-5.00864 v -2.12332 l 1.6117,-1.02215 c 3.28,-2.08012 2.8922,-2.09207 10.5637,0.32546 32.6081,10.2758 59.4565,12.74388 87.2526,8.02081 1.7878,-0.30378 8.092,-1.50994 14.0094,-2.68036 11.8763,-2.34908 13.8189,-2.5249 15.2715,-1.38221 1.825,1.43554 2.4943,3.86183 1.6041,5.81553 -0.6413,1.40754 -4.6829,2.89629 -10.6702,3.93039 -21.1096,3.64601 -39.0197,4.80446 -58.1959,3.7642 z"
       id="path1207"
       inkscape:connector-curvature="0"
       transform="scale(0.26458333)" />
    <path
       style="display:inline;fill:#e0dcbe;fill-opacity:1;stroke:none;stroke-width:0.35770527;stroke-linejoin:round;stroke-miterlimit:4;stroke-dasharray:none;stroke-opacity:1"
       d="m 1190.7304,192.42527 c -19.9082,-1.17199 -36.6568,-3.80419 -56.7282,-8.91538 -3.504,-0.89232 -7.1603,-1.85679 -8.125,-2.14327 l -1.7539,-0.52087 v -1.79594 c 0,-1.54697 0.087,-1.76878 0.625,-1.60001 2.6367,0.8266 12.956,3.2711 18.84,4.46292 27.7434,5.61955 55.7221,6.71793 82.4993,3.23872 1.5714,-0.20418 6.3607,-0.94753 10.643,-1.65189 4.2822,-0.70436 7.8464,-1.22 7.9206,-1.14587 0.074,0.0741 0.1725,1.41873 0.2187,2.98798 l 0.084,2.85319 -7.6475,1.14553 c -18.4035,2.75672 -34.2838,3.80852 -46.576,3.08489 z"
       id="path1205"
       inkscape:connector-curvature="0"
       transform="scale(0.26458333)" />
    <path
       style="display:inline;fill:#e0dcc0;fill-opacity:1;stroke:none;stroke-width:0.35770527;stroke-linejoin:round;stroke-miterlimit:4;stroke-dasharray:none;stroke-opacity:1"
       d="m 1182.3376,206.56179 c -16.7079,-1.04171 -36.3913,-4.39004 -54.3958,-9.25322 -5.8614,-1.58322 -8.58,-3.05751 -10.3513,-5.6136 -1.2018,-1.73415 -1.2213,-3.00385 -0.076,-4.958 0.8671,-1.47959 4.0485,-3.8575 5.7404,-4.2907 0.4063,-0.10402 3.2188,0.47175 6.25,1.27949 33.7725,8.99939 63.5839,11.97605 91.2497,9.11126 2.9332,-0.30373 9.8752,-1.20817 15.4266,-2.00985 5.5515,-0.80169 10.5077,-1.35367 11.0139,-1.22661 1.2108,0.30388 4.3329,3.44715 4.6403,4.67162 0.1502,0.5986 0.031,1.40485 -0.3168,2.13308 -0.5615,1.17756 -1.4671,1.91302 -5.4505,4.42653 l -2.1624,1.36449 -10.732,1.48794 c -22.0774,3.06093 -35.6095,3.82692 -50.836,2.87757 z"
       id="path1203"
       inkscape:connector-curvature="0"
       transform="scale(0.26458333)" />
    <path
       id="rect5444"
       transform="scale(0.26458333)"
       style="opacity:0.88899997;fill:none;fill-opacity:0.38431373;stroke:none;stroke-width:1.00157475;stroke-linejoin:round;stroke-miterlimit:4;stroke-dasharray:none;stroke-opacity:1"
       d="M -8.0820312,-8.1425781 V 1210.1016 H 1933.4316 V -8.1425781 H 5.2929688 c 2.6525357,1.3524063 5.3100822,3.9715948 7.5175782,8.12109372 C 27.791263,28.138235 44.968711,55.049136 61.853516,82.09375 c 4.153595,6.544891 8.486673,12.979444 12.460937,19.63477 4.188987,7.01488 8.003027,14.24738 12.021485,21.36132 12.13746,21.48718 13.788952,23.81961 25.416012,46.17578 3.97446,7.64193 7.46633,15.53743 11.63672,23.07422 3.65484,6.60507 7.88017,12.87747 11.82031,19.31641 12.02724,15.19048 24.99598,29.58899 36.98047,44.81445 4.00375,5.08649 8.12589,10.09516 11.78125,15.4375 5.57803,8.15233 15.6702,26.21306 20.50586,34.67188 3.34195,5.43441 6.4429,11.02574 10.02539,16.30469 5.39549,7.95044 11.30094,15.54229 16.89063,23.35742 7.82974,10.947 15.52303,21.99106 23.36719,32.92773 14.94465,20.8365 29.84666,41.75353 45.84179,61.80078 2.29737,2.92041 17.60968,22.47816 20.02149,25.16992 3.68827,4.1164 7.86458,7.76979 11.69336,11.75586 1.85296,1.92908 22.61794,24.3767 24.70507,26.48243 4.10854,4.14512 8.45953,8.04326 12.68946,12.06445 4.41108,4.39744 8.76392,8.85228 13.23242,13.19141 15.32874,14.88487 12.51953,10.78341 27.04297,27.62695 4.06197,4.71084 7.61326,9.85057 11.75195,14.49414 8.32271,9.33804 10.09708,10.04694 19.43164,17.14062 2.41198,1.15427 4.71784,2.56435 7.23633,3.4629 1.40916,0.50274 2.96275,0.42508 4.43359,0.69921 2.06737,0.38533 4.19001,0.5908 6.17774,1.27735 4.23605,1.46311 7.122,2.91288 9.84375,4.96875 -0.10576,-0.1193 -0.18315,-0.22128 -0.29688,-0.34571 -1.0335,-1.13067 -1.30016,-1.55103 -1.55859,-1.79101 -0.64897,-0.22756 -1.30077,-0.45316 -1.89844,-0.74805 1.32432,0.44228 1.60461,0.4752 1.89844,0.74805 1.17252,0.41113 2.33431,0.8368 3.13476,1.73633 1.24876,1.40331 2.18545,2.76011 2.89649,4.09961 0.31227,0.31008 0.61727,0.60241 0.94141,0.93554 0.7344,2.85415 2.0423,5.61976 2.20312,8.5625 0.0975,1.7816 -0.94855,3.43955 -1.45508,5.15039 -0.0529,0.17863 -0.0859,0.31535 -0.13086,0.47852 -0.0584,0.65028 -0.11797,1.29208 -0.17187,1.97266 -0.10532,-0.004 -0.21104,-0.003 -0.31641,-0.006 -0.38363,1.65259 -0.51506,1.16897 -3.55078,-0.0488 -5.47184,0.005 -10.97206,0.26846 -16.33984,-0.69336 -0.93717,-0.16781 -0.0189,-1.90939 0.10351,-2.85352 0.0174,-0.13363 0.13416,-0.79108 0.28516,-1.57617 0.0104,-0.48407 0.0135,-0.56702 0.0215,-0.88672 -2.03486,-0.63006 -4.19505,-0.78568 -6.26953,-1.28125 -11.85468,-2.83196 -7.59845,-1.59866 -19.52539,-7.86523 -11.25948,-8.79099 -12.81491,-9.24914 -22.79687,-20.42774 -20.00852,-22.40715 -1.62113,-5.07203 -23.57618,-27.48632 -4.42465,-4.51722 -9.24282,-8.63219 -13.77929,-13.03711 -4.35786,-4.23149 -8.59984,-8.57942 -12.90039,-12.86914 -4.5046,-4.29839 -9.13269,-8.47219 -13.51563,-12.89454 -2.57878,-2.60201 -21.7535,-23.40285 -24.31445,-26.08007 -4.29559,-4.49069 -8.92372,-8.66654 -13.06836,-13.29688 -2.43744,-2.72307 -17.66255,-22.16991 -20.07617,-25.23828 -16.21207,-20.36096 -31.35466,-41.55506 -46.52149,-62.70117 -7.81313,-10.89336 -15.48227,-21.88778 -23.27343,-32.79688 -5.87369,-8.22426 -12.05421,-16.23321 -17.72071,-24.60156 -3.6976,-5.46066 -6.90192,-11.23999 -10.35351,-16.85937 -3.3393,-5.84633 -14.85917,-26.33566 -19.02735,-32.44141 -3.53444,-5.17744 -7.52632,-10.02814 -11.40234,-14.95508 -12.53851,-15.93812 -26.22328,-30.91648 -38.54492,-47.03125 -4.20421,-6.91401 -8.69322,-13.6632 -12.61328,-20.74219 C 101.25436,194.04163 97.836533,186.2959 93.939473,178.79872 82.261204,156.33215 80.977204,154.71024 68.722656,132.98828 64.885083,126.18594 61.262524,119.25999 57.257812,112.55469 53.257543,105.85683 48.896954,99.380058 44.716797,92.792969 27.69564,65.525265 10.382739,38.387266 -4.7304688,10.001953 -9.3738605,1.280831 -7.4315992,-5.561841 -3.1542969,-8.1425781 Z M 458.74609,616.94141 c 0.29657,0.14852 0.58502,0.28984 0.44141,0.14843 -0.012,-0.0118 -0.0959,-0.0701 -0.11719,-0.0879 -0.11416,-0.0202 -0.20823,-0.0404 -0.32422,-0.0605 z"
       inkscape:connector-curvature="0" />
    <rect
       style="opacity:0.449;fill:#ffffff;fill-opacity:1;stroke:none;stroke-width:0.047;stroke-linejoin:round;stroke-miterlimit:4;stroke-dasharray:none;stroke-opacity:1"
       id="rect1131"
       width="512.38831"
       height="322.32709"
       x="-0.83457434"
       y="-2.1543903" />
  </g>
</svg>
